<?xml version="1.0" encoding="UTF-8"?>
<svg version="1.1" xmlns="http://www.w3.org/2000/svg" width="1440" height="2880">
<path d="M0 0 C475.2 0 950.4 0 1440 0 C1440 950.4 1440 1900.8 1440 2880 C964.8 2880 489.6 2880 0 2880 C0 1929.6 0 979.2 0 0 Z " fill="#011F4B" transform="translate(0,0)"/>
<path d="M0 0 C0.93091475 0.00291284 1.8618295 0.00582568 2.82095379 0.00882679 C3.80186078 0.00797237 4.78276777 0.00711794 5.79339921 0.00623763 C9.10699976 0.00457985 12.42055059 0.01010905 15.73414654 0.01555592 C18.09879598 0.01583775 20.46344551 0.01568013 22.8280949 0.01511341 C28.59985476 0.01485526 34.37159811 0.01920656 40.14335418 0.02555107 C46.8568623 0.03268503 53.57036802 0.03419496 60.28387939 0.03533924 C72.25721412 0.03753008 84.23054206 0.04419102 96.2038731 0.05364186 C107.83766181 0.06281515 119.47144869 0.06989639 131.10524029 0.07414967 C132.18016461 0.07454375 132.18016461 0.07454375 133.27680457 0.0749458 C136.87171103 0.0762508 140.4666175 0.07751452 144.06152397 0.0787577 C173.90414446 0.0891313 203.74675701 0.1068246 233.58937114 0.12908131 C234.68708843 3.91295582 234.68708843 3.91295582 233.80763286 5.85808522 C233.38240337 6.43477955 232.95717388 7.01147389 232.51905864 7.60564381 C232.04146099 8.26693287 231.56386333 8.92822193 231.07179302 9.60955006 C230.5413438 10.31724537 230.01089458 11.02494068 229.46437114 11.75408131 C228.64936138 12.87363209 228.64936138 12.87363209 227.81788677 14.01580006 C226.6658372 15.59673406 225.50846266 17.17379932 224.34620708 18.74724537 C222.10983471 21.77921436 219.90592104 24.83389567 217.70314068 27.89031178 C216.61985355 29.39314733 215.53486845 30.89476028 214.44825786 32.39519459 C210.79051232 37.44678183 207.17682465 42.52738526 203.58937114 47.62908131 C196.79726644 57.28431594 189.87116901 66.84114063 182.94386333 76.39958912 C176.61108851 85.14054926 170.3174677 93.90528364 164.10865825 102.7347942 C159.93682041 108.65887239 155.69623738 114.53148206 151.44483989 120.39861256 C147.78941398 125.44990517 144.1759096 130.52868656 140.58937114 135.62908131 C133.79726644 145.28431594 126.87116901 154.84114063 119.94386333 164.39958912 C113.61478939 173.13544104 107.32434601 181.89472005 101.11964458 190.71941334 C97.37916043 196.03139464 93.58690955 201.30431801 89.77687114 206.56658131 C88.69343861 208.06650966 87.61010156 209.56650698 86.52687114 211.06658131 C84.7628136 213.50912253 82.9923706 215.94667928 81.21437114 218.37908131 C80.57499614 219.26595631 79.93562114 220.15283131 79.27687114 221.06658131 C78.47829693 222.16292897 78.47829693 222.16292897 77.66358989 223.28142506 C76.33806092 225.20512883 76.33806092 225.20512883 76.58937114 228.12908131 C125.09937114 228.45908131 173.60937114 228.78908131 223.58937114 229.12908131 C223.91937114 230.77908131 224.24937114 232.42908131 224.58937114 234.12908131 C222.70427848 236.58394475 220.903086 238.60340006 218.71437114 240.75408131 C217.49824453 242.00156655 216.28471557 243.25158922 215.07374614 244.50408131 C214.17559185 245.42640553 214.17559185 245.42640553 213.25929302 246.36736256 C211.02426474 248.72525204 208.9878749 251.21362404 206.96437114 253.75408131 C203.81496017 257.68796096 200.52154882 261.44174948 197.08937114 265.12908131 C193.6377306 268.83767665 190.32414821 272.61414208 187.15187114 276.56658131 C183.30891636 281.34449469 179.22105785 285.81903115 175.0332188 290.2907024 C171.1103026 294.50337236 167.4702609 298.89321685 163.86671489 303.38298756 C161.37110646 306.39227183 158.75171972 309.26846785 156.08937114 312.12908131 C152.61517871 315.86235386 149.28868404 319.65279242 146.08937114 323.62908131 C142.45373065 328.14766307 138.62100713 332.4089146 134.67311138 336.65080982 C131.70221486 339.86207181 128.88976038 343.15535946 126.15187114 346.56658131 C122.30891636 351.34449469 118.22105785 355.81903115 114.0332188 360.2907024 C110.1103026 364.50337236 106.4702609 368.89321685 102.86671489 373.38298756 C99.92859663 376.92586429 96.80705937 380.28349903 93.67286724 383.65105397 C90.70207048 386.86225004 87.88968794 390.15544972 85.15187114 393.56658131 C81.30891636 398.34449469 77.22105785 402.81903115 73.0332188 407.2907024 C69.1103026 411.50337236 65.4702609 415.89321685 61.86671489 420.38298756 C59.37110646 423.39227183 56.75171972 426.26846785 54.08937114 429.12908131 C50.61517871 432.86235386 47.28868404 436.65279242 44.08937114 440.62908131 C40.45373065 445.14766307 36.62100713 449.4089146 32.67311138 453.65080982 C29.70221486 456.86207181 26.88976038 460.15535946 24.15187114 463.56658131 C20.30891636 468.34449469 16.22105785 472.81903115 12.0332188 477.2907024 C8.1103026 481.50337236 4.4702609 485.89321685 0.86671489 490.38298756 C-1.62889354 493.39227183 -4.24828028 496.26846785 -6.91062886 499.12908131 C-10.38482129 502.86235386 -13.71131596 506.65279242 -16.91062886 510.62908131 C-20.54626935 515.14766307 -24.37899287 519.4089146 -28.32688862 523.65080982 C-31.29778514 526.86207181 -34.11023962 530.15535946 -36.84812886 533.56658131 C-40.69108364 538.34449469 -44.77894215 542.81903115 -48.9667812 547.2907024 C-52.8896974 551.50337236 -56.5297391 555.89321685 -60.13328511 560.38298756 C-63.07140337 563.92586429 -66.19294063 567.28349903 -69.32713276 570.65105397 C-72.29792952 573.86225004 -75.11031206 577.15544972 -77.84812886 580.56658131 C-81.69108364 585.34449469 -85.77894215 589.81903115 -89.9667812 594.2907024 C-93.88523386 598.49857913 -97.521294 602.88338699 -101.12156636 607.36736256 C-104.12955025 610.99644893 -107.30781842 614.44808154 -110.51170307 617.90373951 C-113.90972287 621.56925783 -117.19410097 625.30402112 -120.41062886 629.12908131 C-121.73062886 628.79908131 -123.05062886 628.46908131 -124.41062886 628.12908131 C-123.78017754 624.33519216 -122.67639737 621.10998204 -121.13719136 617.59001881 C-120.65193989 616.47449635 -120.16668843 615.35897389 -119.66673237 614.20964772 C-119.12317153 612.97439715 -118.57946517 611.73921061 -118.03562886 610.50408131 C-117.46229509 609.19221626 -116.88930741 607.88019992 -116.31663471 606.56804615 C-114.35682392 602.08448165 -112.38481628 597.606331 -110.41062886 593.12908131 C-110.0444344 592.29852223 -109.67823994 591.46796314 -109.30094868 590.61223561 C-105.70435575 582.45731568 -102.10228224 574.30482196 -98.49534565 566.15447193 C-93.75715642 555.44740564 -89.03471139 544.73383877 -84.34812886 534.00408131 C-84.07344776 533.37527058 -83.79876667 532.74645985 -83.51576191 532.09859425 C-83.23977162 531.46678242 -82.96378132 530.83497059 -82.67942768 530.18401295 C-82.11457908 528.89095783 -81.54971895 527.59790775 -80.98484761 526.30486256 C-80.70194371 525.65723454 -80.4190398 525.00960652 -80.12756306 524.3423534 C-76.31630148 515.62058496 -72.48783587 506.90636118 -68.66062886 498.19158131 C-68.28219837 497.32982289 -67.90376789 496.46806446 -67.51386982 495.58019215 C-65.58439346 491.18644252 -63.65477879 486.79275365 -61.72508198 482.39910084 C-59.44794241 477.21423841 -57.17137306 472.02912576 -54.89500386 466.84392506 C-54.52455952 466.0001128 -54.15411518 465.15630055 -53.77244526 464.28691822 C-52.65182978 461.73431031 -51.5312268 459.18169692 -50.41062886 456.62908131 C-45.47781733 445.39260552 -40.54465424 434.15628468 -35.60958821 422.92079884 C-33.71088625 418.59779714 -31.81294259 414.27446567 -29.91673237 409.95037037 C-29.18164765 408.27425365 -28.44654043 406.59814679 -27.71141011 404.92205006 C-27.35265293 404.10406941 -26.99389576 403.28608876 -26.62426716 402.44332081 C-24.50130913 397.60575332 -22.37027264 392.77184864 -20.23182636 387.94110829 C-18.91034953 384.95463654 -17.59253544 381.96655665 -16.27525288 378.97823292 C-15.66468616 377.5958158 -15.05234433 376.21418111 -14.43809468 374.83339649 C-13.60018265 372.94955056 -12.76841329 371.06310505 -11.93797261 369.17595631 C-11.47125141 368.12246998 -11.00453022 367.06898365 -10.52366596 365.9835735 C-9.20204048 362.83802704 -9.20204048 362.83802704 -8.41062886 358.12908131 C-52.30062886 358.12908131 -96.19062886 358.12908131 -141.41062886 358.12908131 C-142.5356487 352.50398209 -142.5356487 352.50398209 -140.98973042 348.47380787 C-140.47982815 347.11698399 -140.47982815 347.11698399 -139.95962483 345.73274952 C-139.57736241 344.75494526 -139.19509999 343.777141 -138.80125386 342.76970631 C-138.2112434 341.21683415 -138.2112434 341.21683415 -137.60931355 339.63259083 C-136.30523938 336.20996889 -134.98309069 332.7946361 -133.66062886 329.37908131 C-132.7402673 326.97500784 -131.82092896 324.57054242 -130.90257221 322.1657024 C-128.0897158 314.81323299 -125.2524076 307.47041703 -122.41062886 300.12908131 C-121.58455517 297.992062 -120.75854313 295.85501886 -119.93260151 293.7179485 C-116.83896982 285.7179059 -113.73910671 277.72030718 -110.62815815 269.7269817 C-104.68238401 254.44650847 -98.81255499 239.13798757 -92.97312886 223.81658131 C-86.1238221 205.84829668 -79.25528334 187.88771568 -72.34812886 169.94158131 C-71.93715962 168.87367359 -71.52619038 167.80576588 -71.10276753 166.70549732 C-67.79340153 158.10659751 -64.48225848 149.50838229 -61.17100483 140.91020924 C-58.27086528 133.37932603 -55.37154092 125.84812955 -52.47312886 118.31658131 C-52.06414356 117.25396076 -51.65515827 116.19134022 -51.23377949 115.09651905 C-45.0896356 99.12997161 -38.97914318 83.15078054 -32.88410908 67.16542774 C-20.40260313 34.43307598 -20.40260313 34.43307598 -14.0751186 18.11321217 C-13.47126694 16.55544173 -12.86826329 14.99734228 -12.26615864 13.43889576 C-11.4576945 11.34756282 -10.64575239 9.25762004 -9.83250386 7.16814381 C-9.3848769 6.01523854 -8.93724995 4.86233326 -8.47605854 3.67449147 C-6.57580417 -0.86539214 -4.71269126 0.01119705 0 0 Z " fill="#234869" transform="translate(663.4106288552284,1397.8709186911583)"/>
<path d="M0 0 C0.93091475 0.00291284 1.8618295 0.00582568 2.82095379 0.00882679 C3.80186078 0.00797237 4.78276777 0.00711794 5.79339921 0.00623763 C9.10699976 0.00457985 12.42055059 0.01010905 15.73414654 0.01555592 C18.09879598 0.01583775 20.46344551 0.01568013 22.8280949 0.01511341 C28.59985476 0.01485526 34.37159811 0.01920656 40.14335418 0.02555107 C46.8568623 0.03268503 53.57036802 0.03419496 60.28387939 0.03533924 C72.25721412 0.03753008 84.23054206 0.04419102 96.2038731 0.05364186 C107.83766181 0.06281515 119.47144869 0.06989639 131.10524029 0.07414967 C132.18016461 0.07454375 132.18016461 0.07454375 133.27680457 0.0749458 C136.87171103 0.0762508 140.4666175 0.07751452 144.06152397 0.0787577 C173.90414446 0.0891313 203.74675701 0.1068246 233.58937114 0.12908131 C234.68708843 3.91295582 234.68708843 3.91295582 233.80763286 5.85808522 C233.38240337 6.43477955 232.95717388 7.01147389 232.51905864 7.60564381 C232.04146099 8.26693287 231.56386333 8.92822193 231.07179302 9.60955006 C230.5413438 10.31724537 230.01089458 11.02494068 229.46437114 11.75408131 C228.64936138 12.87363209 228.64936138 12.87363209 227.81788677 14.01580006 C226.6658372 15.59673406 225.50846266 17.17379932 224.34620708 18.74724537 C222.10983471 21.77921436 219.90592104 24.83389567 217.70314068 27.89031178 C216.61985355 29.39314733 215.53486845 30.89476028 214.44825786 32.39519459 C210.79051232 37.44678183 207.17682465 42.52738526 203.58937114 47.62908131 C196.79726644 57.28431594 189.87116901 66.84114063 182.94386333 76.39958912 C176.61108851 85.14054926 170.3174677 93.90528364 164.10865825 102.7347942 C159.93682041 108.65887239 155.69623738 114.53148206 151.44483989 120.39861256 C147.78941398 125.44990517 144.1759096 130.52868656 140.58937114 135.62908131 C133.79726644 145.28431594 126.87116901 154.84114063 119.94386333 164.39958912 C113.61478939 173.13544104 107.32434601 181.89472005 101.11964458 190.71941334 C97.37916043 196.03139464 93.58690955 201.30431801 89.77687114 206.56658131 C88.69343861 208.06650966 87.61010156 209.56650698 86.52687114 211.06658131 C84.7628136 213.50912253 82.9923706 215.94667928 81.21437114 218.37908131 C80.57499614 219.26595631 79.93562114 220.15283131 79.27687114 221.06658131 C78.47829693 222.16292897 78.47829693 222.16292897 77.66358989 223.28142506 C76.33806092 225.20512883 76.33806092 225.20512883 76.58937114 228.12908131 C125.09937114 228.45908131 173.60937114 228.78908131 223.58937114 229.12908131 C223.91937114 230.77908131 224.24937114 232.42908131 224.58937114 234.12908131 C222.70427848 236.58394475 220.903086 238.60340006 218.71437114 240.75408131 C217.49824453 242.00156655 216.28471557 243.25158922 215.07374614 244.50408131 C214.17559185 245.42640553 214.17559185 245.42640553 213.25929302 246.36736256 C211.02426474 248.72525204 208.9878749 251.21362404 206.96437114 253.75408131 C203.81496017 257.68796096 200.52154882 261.44174948 197.08937114 265.12908131 C193.6377306 268.83767665 190.32414821 272.61414208 187.15187114 276.56658131 C183.30891636 281.34449469 179.22105785 285.81903115 175.0332188 290.2907024 C171.1103026 294.50337236 167.4702609 298.89321685 163.86671489 303.38298756 C161.37110646 306.39227183 158.75171972 309.26846785 156.08937114 312.12908131 C152.61517871 315.86235386 149.28868404 319.65279242 146.08937114 323.62908131 C142.45373065 328.14766307 138.62100713 332.4089146 134.67311138 336.65080982 C131.70221486 339.86207181 128.88976038 343.15535946 126.15187114 346.56658131 C122.30891636 351.34449469 118.22105785 355.81903115 114.0332188 360.2907024 C110.1103026 364.50337236 106.4702609 368.89321685 102.86671489 373.38298756 C99.92859663 376.92586429 96.80705937 380.28349903 93.67286724 383.65105397 C90.70207048 386.86225004 87.88968794 390.15544972 85.15187114 393.56658131 C81.30891636 398.34449469 77.22105785 402.81903115 73.0332188 407.2907024 C69.1103026 411.50337236 65.4702609 415.89321685 61.86671489 420.38298756 C59.37110646 423.39227183 56.75171972 426.26846785 54.08937114 429.12908131 C50.61517871 432.86235386 47.28868404 436.65279242 44.08937114 440.62908131 C40.45373065 445.14766307 36.62100713 449.4089146 32.67311138 453.65080982 C29.70221486 456.86207181 26.88976038 460.15535946 24.15187114 463.56658131 C20.30891636 468.34449469 16.22105785 472.81903115 12.0332188 477.2907024 C8.1103026 481.50337236 4.4702609 485.89321685 0.86671489 490.38298756 C-1.62889354 493.39227183 -4.24828028 496.26846785 -6.91062886 499.12908131 C-10.38482129 502.86235386 -13.71131596 506.65279242 -16.91062886 510.62908131 C-20.54626935 515.14766307 -24.37899287 519.4089146 -28.32688862 523.65080982 C-31.29778514 526.86207181 -34.11023962 530.15535946 -36.84812886 533.56658131 C-40.69108364 538.34449469 -44.77894215 542.81903115 -48.9667812 547.2907024 C-52.8896974 551.50337236 -56.5297391 555.89321685 -60.13328511 560.38298756 C-63.07140337 563.92586429 -66.19294063 567.28349903 -69.32713276 570.65105397 C-72.29792952 573.86225004 -75.11031206 577.15544972 -77.84812886 580.56658131 C-81.69108364 585.34449469 -85.77894215 589.81903115 -89.9667812 594.2907024 C-93.88523386 598.49857913 -97.521294 602.88338699 -101.12156636 607.36736256 C-104.12955025 610.99644893 -107.30781842 614.44808154 -110.51170307 617.90373951 C-113.90972287 621.56925783 -117.19410097 625.30402112 -120.41062886 629.12908131 C-121.73062886 628.79908131 -123.05062886 628.46908131 -124.41062886 628.12908131 C-123.78017754 624.33519216 -122.67639737 621.10998204 -121.13719136 617.59001881 C-120.65193989 616.47449635 -120.16668843 615.35897389 -119.66673237 614.20964772 C-119.12317153 612.97439715 -118.57946517 611.73921061 -118.03562886 610.50408131 C-117.46229509 609.19221626 -116.88930741 607.88019992 -116.31663471 606.56804615 C-114.35682392 602.08448165 -112.38481628 597.606331 -110.41062886 593.12908131 C-110.0444344 592.29852223 -109.67823994 591.46796314 -109.30094868 590.61223561 C-105.70435575 582.45731568 -102.10228224 574.30482196 -98.49534565 566.15447193 C-93.75715642 555.44740564 -89.03471139 544.73383877 -84.34812886 534.00408131 C-84.07344776 533.37527058 -83.79876667 532.74645985 -83.51576191 532.09859425 C-83.23977162 531.46678242 -82.96378132 530.83497059 -82.67942768 530.18401295 C-82.11457908 528.89095783 -81.54971895 527.59790775 -80.98484761 526.30486256 C-80.70194371 525.65723454 -80.4190398 525.00960652 -80.12756306 524.3423534 C-76.31630148 515.62058496 -72.48783587 506.90636118 -68.66062886 498.19158131 C-68.28219837 497.32982289 -67.90376789 496.46806446 -67.51386982 495.58019215 C-65.58439346 491.18644252 -63.65477879 486.79275365 -61.72508198 482.39910084 C-59.44794241 477.21423841 -57.17137306 472.02912576 -54.89500386 466.84392506 C-54.52455952 466.0001128 -54.15411518 465.15630055 -53.77244526 464.28691822 C-52.65182978 461.73431031 -51.5312268 459.18169692 -50.41062886 456.62908131 C-45.47781733 445.39260552 -40.54465424 434.15628468 -35.60958821 422.92079884 C-33.71088625 418.59779714 -31.81294259 414.27446567 -29.91673237 409.95037037 C-29.18164765 408.27425365 -28.44654043 406.59814679 -27.71141011 404.92205006 C-27.35265293 404.10406941 -26.99389576 403.28608876 -26.62426716 402.44332081 C-24.50130913 397.60575332 -22.37027264 392.77184864 -20.23182636 387.94110829 C-18.91034953 384.95463654 -17.59253544 381.96655665 -16.27525288 378.97823292 C-15.66468616 377.5958158 -15.05234433 376.21418111 -14.43809468 374.83339649 C-13.60018265 372.94955056 -12.76841329 371.06310505 -11.93797261 369.17595631 C-11.47125141 368.12246998 -11.00453022 367.06898365 -10.52366596 365.9835735 C-9.20204048 362.83802704 -9.20204048 362.83802704 -8.41062886 358.12908131 C-52.30062886 358.12908131 -96.19062886 358.12908131 -141.41062886 358.12908131 C-142.5356487 352.50398209 -142.5356487 352.50398209 -140.98973042 348.47380787 C-140.47982815 347.11698399 -140.47982815 347.11698399 -139.95962483 345.73274952 C-139.57736241 344.75494526 -139.19509999 343.777141 -138.80125386 342.76970631 C-138.2112434 341.21683415 -138.2112434 341.21683415 -137.60931355 339.63259083 C-136.30523938 336.20996889 -134.98309069 332.7946361 -133.66062886 329.37908131 C-132.7402673 326.97500784 -131.82092896 324.57054242 -130.90257221 322.1657024 C-128.0897158 314.81323299 -125.2524076 307.47041703 -122.41062886 300.12908131 C-121.58455517 297.992062 -120.75854313 295.85501886 -119.93260151 293.7179485 C-116.83896982 285.7179059 -113.73910671 277.72030718 -110.62815815 269.7269817 C-104.68238401 254.44650847 -98.81255499 239.13798757 -92.97312886 223.81658131 C-86.1238221 205.84829668 -79.25528334 187.88771568 -72.34812886 169.94158131 C-71.93715962 168.87367359 -71.52619038 167.80576588 -71.10276753 166.70549732 C-67.79340153 158.10659751 -64.48225848 149.50838229 -61.17100483 140.91020924 C-58.27086528 133.37932603 -55.37154092 125.84812955 -52.47312886 118.31658131 C-52.06414356 117.25396076 -51.65515827 116.19134022 -51.23377949 115.09651905 C-45.0896356 99.12997161 -38.97914318 83.15078054 -32.88410908 67.16542774 C-20.40260313 34.43307598 -20.40260313 34.43307598 -14.0751186 18.11321217 C-13.47126694 16.55544173 -12.86826329 14.99734228 -12.26615864 13.43889576 C-11.4576945 11.34756282 -10.64575239 9.25762004 -9.83250386 7.16814381 C-9.3848769 6.01523854 -8.93724995 4.86233326 -8.47605854 3.67449147 C-6.57580417 -0.86539214 -4.71269126 0.01119705 0 0 Z M10.58937114 24.12908131 C7.1874595 30.91953952 7.1874595 30.91953952 4.32545513 37.84343678 C3.92587093 38.90464741 3.52628673 39.96585804 3.11459392 41.05922657 C2.69248134 42.19345051 2.27036876 43.32767445 1.83546489 44.49626881 C1.14050505 46.34673058 0.4455438 48.19719183 -0.24947411 50.0476318 C-0.98635723 52.01200284 -1.72111798 53.97715548 -2.45524555 55.94255787 C-3.99275023 60.05848064 -5.53624508 64.17213964 -7.08103901 68.28533131 C-7.60563732 69.6822425 -8.13023449 71.07915412 -8.65483052 72.47606617 C-8.91525387 73.16949368 -9.17567723 73.86292118 -9.4439922 74.57736164 C-10.23714329 76.68988326 -11.02973426 78.80261427 -11.82218891 80.91539723 C-16.60613995 93.66746735 -21.43897781 106.40071579 -26.28562886 119.12908131 C-27.83945242 123.21224804 -29.39276566 127.29560867 -30.94578511 131.37908131 C-31.32133534 132.36651325 -31.69688557 133.3539452 -32.08381611 134.37129933 C-35.97933084 144.61795079 -39.85259292 154.87297378 -43.72312886 165.12908131 C-50.7370833 183.71425084 -57.77836062 202.28897923 -64.82701069 220.8610149 C-69.60372504 233.44736996 -74.37877064 246.03432026 -79.13328511 258.62908131 C-79.5015894 259.60457432 -79.86989369 260.58006733 -80.24935871 261.58512074 C-82.01274424 266.25664643 -83.77440894 270.92881144 -85.53343159 275.6019817 C-88.76093521 284.1690137 -92.018747 292.72217061 -95.34812886 301.25017506 C-95.96798623 302.84451892 -96.5877002 304.43891855 -97.20725971 306.03337818 C-98.3454876 308.962348 -99.49623448 311.88592575 -100.65501362 314.80681568 C-101.15869319 316.10023864 -101.66189702 317.39384701 -102.16453511 318.68767506 C-102.60096333 319.79425465 -103.03739155 320.90083424 -103.48704487 322.04094654 C-104.69716362 325.54993654 -104.69716362 325.54993654 -104.41062886 331.12908131 C-38.57562886 331.62408131 -38.57562886 331.62408131 28.58937114 332.12908131 C27.464483 338.87841017 27.464483 338.87841017 26.12501568 341.87566334 C25.67544758 342.89580776 25.67544758 342.89580776 25.21679729 343.93656117 C24.88857479 344.66267094 24.56035228 345.38878071 24.22218364 346.13689381 C23.87579342 346.91863468 23.52940319 347.70037556 23.17251629 348.50580555 C22.42049723 350.20123897 21.66540143 351.89531031 20.90757793 353.58815724 C18.84876678 358.18805918 16.81292874 362.79814213 14.77296489 367.40642506 C14.34721676 368.36637882 13.92146862 369.32633259 13.48281902 370.31537586 C8.84359469 380.78535857 4.30619264 391.29870037 -0.22312886 401.81658131 C-1.03205932 403.69356468 -1.84105965 405.57051795 -2.65013081 407.44744068 C-3.82551914 410.17422867 -5.00085291 412.90103993 -6.17581135 415.62801319 C-8.92258234 422.00181714 -11.68055035 428.37065861 -14.44627339 434.73625904 C-15.96256936 438.2297526 -17.47185839 441.72621694 -18.98094136 445.22283131 C-21.29272813 450.57870127 -23.63908936 455.91872419 -25.99664265 461.25460011 C-27.7024335 465.12337268 -29.39511178 468.99780806 -31.08589131 472.8731609 C-31.92297657 474.7837173 -32.76563691 476.69184137 -33.61402851 478.59740406 C-34.79897977 481.26073927 -35.96420568 483.93191433 -37.12547261 486.60564381 C-37.48821278 487.4083672 -37.85095295 488.21109059 -38.22468525 489.03813893 C-38.54377857 489.7830962 -38.8628719 490.52805348 -39.19163471 491.29558522 C-39.61913265 492.26572056 -39.61913265 492.26572056 -40.05526692 493.2554546 C-40.53412263 495.78019558 -39.72094307 496.98569418 -38.41062886 499.12908131 C-34.15258943 497.55611145 -31.77140405 494.33790476 -28.97312886 490.94158131 C-27.90206496 489.66637899 -26.83043101 488.3916553 -25.75828511 487.11736256 C-25.20672749 486.45816822 -24.65516987 485.79897389 -24.08689839 485.11980397 C-21.3970175 481.92532556 -18.65303333 478.77845514 -15.91062886 475.62908131 C-11.63789014 470.71073822 -7.39060129 465.77173053 -3.16062886 460.81658131 C0.26378063 456.8056063 3.72663843 452.84253026 7.27687114 448.94158131 C10.30649983 445.60681017 13.19545207 442.19620492 16.02687114 438.69158131 C19.88762251 433.91767831 23.9637419 429.39519703 28.12062114 424.87908131 C30.53315218 422.19170497 32.82193325 419.43942687 35.08937114 416.62908131 C38.92772529 411.87168463 42.98559473 407.37124213 47.12452739 402.87517506 C49.51644412 400.21032964 51.78191998 397.48076306 54.02687114 394.69158131 C57.68443378 390.15671969 61.53554142 385.87371948 65.50099224 381.61199147 C69.30335921 377.50128855 72.83207706 373.20632547 76.34327739 368.84392506 C78.67767704 366.02234636 81.10927713 363.32317419 83.58937114 360.62908131 C87.70316023 356.15923011 91.56024411 351.53863238 95.37452739 346.81267506 C98.25418001 343.32357215 101.2963099 339.9991121 104.34327739 336.65642506 C106.65124712 334.05945738 108.84492977 331.39504118 111.02687114 328.69158131 C114.88762251 323.91767831 118.9637419 319.39519703 123.12062114 314.87908131 C125.53315218 312.19170497 127.82193325 309.43942687 130.08937114 306.62908131 C133.92772529 301.87168463 137.98559473 297.37124213 142.12452739 292.87517506 C144.51644412 290.21032964 146.78191998 287.48076306 149.02687114 284.69158131 C152.2489302 280.69668269 155.59731604 276.88496175 159.08937114 273.12908131 C162.73616832 269.18196721 166.34355969 265.21114686 169.83937114 261.12908131 C170.58702739 260.26283131 171.33468364 259.39658131 172.10499614 258.50408131 C172.59483989 257.72033131 173.08468364 256.93658131 173.58937114 256.12908131 C173.25937114 254.80908131 172.92937114 253.48908131 172.58937114 252.12908131 C100.81437114 251.63408131 100.81437114 251.63408131 27.58937114 251.12908131 C28.47782687 246.68680268 28.76759434 245.43588654 31.29249614 242.11736256 C31.85388286 241.36906178 32.41526958 240.620761 32.99366802 239.84978443 C33.60275005 239.0550774 34.21183208 238.26037037 34.83937114 237.44158131 C36.12668945 235.72998819 37.41312805 234.01773312 38.69874614 232.30486256 C39.3516563 231.43941822 40.00456646 230.57397389 40.67726177 229.68230397 C43.53345493 225.86845462 46.31264275 222.00096031 49.08937114 218.12908131 C54.12810688 211.12597557 59.23151868 204.17293023 64.35890239 197.23455006 C68.84542969 191.15635011 73.27537548 185.03919897 77.6882481 178.90740162 C81.67943145 173.36930904 85.71908253 167.86851395 89.77687114 162.37908131 C93.75816063 156.99263083 97.71363653 151.59202153 101.58937114 146.12908131 C105.46510711 140.66613919 109.42067234 135.26560046 113.40187114 129.87908131 C120.20063569 120.6786944 126.90711206 111.41428977 133.58937114 102.12908131 C140.79000322 92.12357733 148.03187901 82.15219653 155.35646099 72.23699147 C159.85631738 66.1394052 164.32195403 60.01807465 168.73439068 53.85686451 C171.55185215 49.92569445 174.40734029 46.03152192 177.32765239 42.17595631 C177.93600933 41.36263844 178.54436626 40.54932057 179.17115825 39.7113567 C180.34082909 38.14930072 181.52216253 36.59589028 182.71656841 35.05266529 C183.23920269 34.34956227 183.76183697 33.64645924 184.30030864 32.92205006 C184.76743267 32.30869801 185.23455669 31.69534596 185.71583599 31.06340748 C187.0085157 28.70142841 187.0085157 28.70142841 185.58937114 24.12908131 C127.83937114 24.12908131 70.08937114 24.12908131 10.58937114 24.12908131 Z " fill="#ECAE36" transform="translate(663.4106288552284,1397.8709186911583)"/>
<path d="M0 0 C0.70253906 0.49757813 1.40507812 0.99515625 2.12890625 1.5078125 C2.73863281 1.92289063 3.34835938 2.33796875 3.9765625 2.765625 C14.33016466 10.64285306 21.16919122 23.8423938 23.12890625 36.5078125 C23.40130825 39.61899947 23.46386939 42.69825744 23.44140625 45.8203125 C23.4357666 46.64990479 23.43012695 47.47949707 23.42431641 48.33422852 C23.13086267 63.26695586 17.97470713 76.35130716 7.63671875 87.25 C4.22259536 90.32377464 0.56361065 92.71282738 -3.390625 95.03515625 C-5.68375684 96.39659043 -7.77124678 97.86807186 -9.87109375 99.5078125 C1.85559651 103.39691737 12.80317556 105.44022953 25.12890625 106.5078125 C25.12890625 113.1078125 25.12890625 119.7078125 25.12890625 126.5078125 C4.37679407 125.91489501 -16.87798248 118.50092377 -31.87109375 103.5078125 C-34.11800852 103.231454 -36.36894217 102.98762389 -38.62109375 102.7578125 C-54.0649298 100.85796821 -67.36289904 93.90272318 -77.34375 81.75 C-87.74602503 66.479141 -90.4756294 48.82531706 -87.1875 30.75 C-82.35516005 15.39077841 -72.23330507 3.48958949 -58.06640625 -3.96875 C-38.82485056 -13.08317111 -17.87901078 -11.72297577 0 0 Z " fill="#D7BB55" transform="translate(241.87109375,1004.4921875)"/>
<path d="M0 0 C7.92856765 7.37906296 13.23825156 17.20991627 13.73046875 28.1796875 C13.75001521 29.66654332 13.75338435 31.15368286 13.7421875 32.640625 C13.73654785 33.42824219 13.7309082 34.21585938 13.72509766 35.02734375 C13.44886624 48.48336909 10.13145446 59.78619187 0.3046875 69.328125 C-7.4055358 75.69519382 -15.73824808 78.8629472 -25.7578125 78.3671875 C-33.67784582 77.37718333 -40.46242427 74.1993883 -46.5703125 69.015625 C-46.5703125 68.355625 -46.5703125 67.695625 -46.5703125 67.015625 C-47.2303125 67.015625 -47.8903125 67.015625 -48.5703125 67.015625 C-48.5703125 82.525625 -48.5703125 98.035625 -48.5703125 114.015625 C-55.1703125 114.015625 -61.7703125 114.015625 -68.5703125 114.015625 C-68.5703125 74.745625 -68.5703125 35.475625 -68.5703125 -4.984375 C-61.9703125 -4.984375 -55.3703125 -4.984375 -48.5703125 -4.984375 C-48.2403125 -1.024375 -47.9103125 2.935625 -47.5703125 7.015625 C-47.1165625 6.17 -46.6628125 5.324375 -46.1953125 4.453125 C-42.83799558 -0.60090047 -37.01090443 -5.01810487 -31.1640625 -6.66015625 C-19.56558949 -8.10996538 -9.48984273 -7.32650472 0 0 Z " fill="#D7BB55" transform="translate(1137.5703125,1028.984375)"/>
<path d="M0 0 C60.34517045 0 60.34517045 0 72.7734375 10.6875 C81.93539435 20.20307624 84.43392209 29.6933595 84.35913086 42.45849609 C84.09225661 54.69004642 79.80675966 61.56831529 71 70 C61.95551438 78.09549248 50.59317594 79.28779714 38.88671875 79.23046875 C32.99664999 78.88120839 27.30199876 77.65099938 22 75 C22 85.56 22 96.12 22 107 C14.74 107 7.48 107 0 107 C0 71.69 0 36.38 0 0 Z " fill="#D8BB55" transform="translate(653,998)"/>
<path d="M0 0 C4.1041303 2.62800859 7.10544738 6.10348685 10 10 C10.53367187 9.40832031 11.06734375 8.81664062 11.6171875 8.20703125 C18.21604417 1.20858984 24.54074073 -4.14932186 34.5 -4.5 C44.24468071 -3.96397384 51.40442864 -1.34473425 58 6 C65.05906369 14.98099706 65.28986566 24.20766721 65.1953125 35.25 C65.1924826 36.50385498 65.18965271 37.75770996 65.18673706 39.04956055 C65.17748144 42.3572465 65.15956217 45.66473182 65.1373291 48.97235107 C65.11674364 52.35784469 65.10770839 55.74336787 65.09765625 59.12890625 C65.07566871 65.75269178 65.04117636 72.37630709 65 79 C58.4 79 51.8 79 45 79 C44.9906543 77.46142334 44.98130859 75.92284668 44.97167969 74.33764648 C44.93172358 68.61404772 44.86594783 62.89098325 44.79248047 57.16772461 C44.76430368 54.69351072 44.74307285 52.21920737 44.72900391 49.74487305 C44.70752978 46.18231513 44.66085325 42.62082917 44.609375 39.05859375 C44.60814636 37.95728622 44.60691772 36.8559787 44.60565186 35.72129822 C44.48347662 29.27412127 43.83935639 25.24584002 40 20 C36.34311205 16.7610421 32.91334573 16.53158891 28.203125 16.71875 C22.97283498 17.3864466 18.9257555 20.25508575 15.29022217 23.97857666 C12.58058035 28.22384027 13.15599027 33.30072642 13.1953125 38.1796875 C13.18160614 39.3475882 13.16789978 40.51548889 13.15377808 41.71878052 C13.11647819 45.43791219 13.12019347 49.15570781 13.125 52.875 C13.10687346 55.40106254 13.08607093 57.92710739 13.0625 60.453125 C13.01064795 66.63564058 12.99556976 72.8172789 13 79 C6.4 79 -0.2 79 -7 79 C-7.01458252 77.45618652 -7.02916504 75.91237305 -7.04418945 74.32177734 C-7.1022319 68.58521551 -7.17946538 62.84904374 -7.26245117 57.11279297 C-7.29567236 54.63173765 -7.32371298 52.15060727 -7.34643555 49.66943359 C-7.3800322 46.09960999 -7.43235283 42.53047255 -7.48828125 38.9609375 C-7.49467117 37.85446869 -7.5010611 36.74799988 -7.50764465 35.60800171 C-7.61373766 30.03044068 -7.76678231 25.76765074 -11 21 C-14.52094303 17.73668694 -17.30393216 16.71185268 -22 16.5 C-26.71551243 16.70502228 -29.36762829 17.87447086 -33 21 C-34.29877075 21.93525513 -34.29877075 21.93525513 -35.6237793 22.8894043 C-39.26765474 27.65942557 -38.72732518 32.23272835 -38.70703125 38.08203125 C-38.72215256 39.25134689 -38.73727386 40.42066254 -38.75285339 41.62541199 C-38.79578929 45.3546366 -38.80457471 49.08305265 -38.8125 52.8125 C-38.83563951 55.34312054 -38.86100369 57.87372179 -38.88867188 60.40429688 C-38.95158341 66.60293626 -38.9838726 72.80106946 -39 79 C-45.6 79 -52.2 79 -59 79 C-59 52.27 -59 25.54 -59 -2 C-52.4 -2 -45.8 -2 -39 -2 C-38.67 0.97 -38.34 3.94 -38 7 C-37.01 5.9275 -36.02 4.855 -35 3.75 C-24.79850864 -6.28859329 -12.59147423 -6.28553333 0 0 Z " fill="#D8BB55" transform="translate(981,1026)"/>
<path d="M0 0 C8.85322514 6.80667481 14.28150198 16.08960381 17.28125 26.75390625 C18.50717154 41.08285934 15.76724783 52.48814914 6.6875 63.7265625 C-1.40633615 72.41216497 -11.72592956 77.22043385 -23.484375 77.91796875 C-35.91743066 78.26864468 -46.09830224 74.6220304 -55.46875 66.31640625 C-56.21125 65.47078125 -56.95375 64.62515625 -57.71875 63.75390625 C-58.20988281 63.24214844 -58.70101562 62.73039062 -59.20703125 62.203125 C-67.84463798 52.87965372 -69.31431693 42.26388176 -69.0625 29.87109375 C-68.44574341 18.76433556 -61.84586031 9.45218775 -53.96875 2.06640625 C-37.84786854 -11.43444667 -17.36730257 -11.24927553 0 0 Z " fill="#D7BA55" transform="translate(885.71875,1029.24609375)"/>
<path d="M0 0 C6.6 0 13.2 0 20 0 C20.33 22.11 20.66 44.22 21 67 C30.46313134 57.66917737 30.46313134 57.66917737 39.23828125 47.98046875 C42.31237071 44.52467416 45.65191579 41.33060785 48.9609375 38.1015625 C51.04126091 36.16903954 51.04126091 36.16903954 52 34 C60.25 34 68.5 34 77 34 C73.00646425 38.65912505 69.09704152 42.98502843 64.69140625 47.1953125 C63.5207558 48.3338868 62.35085452 49.47323179 61.18164062 50.61328125 C59.36252697 52.38273555 57.53941122 54.1470306 55.70336914 55.89892578 C53.91473076 57.60909639 52.14565245 59.33757281 50.37890625 61.0703125 C49.82384903 61.59126495 49.26879181 62.11221741 48.69691467 62.6489563 C46.97124634 64.29410114 46.97124634 64.29410114 45 67 C45.00866314 70.62552555 46.20668466 72.71692961 48.51953125 75.42578125 C49.04135986 76.04952637 49.56318848 76.67327148 50.10083008 77.31591797 C50.66568115 77.97479004 51.23053223 78.63366211 51.8125 79.3125 C53.00259056 80.73611964 54.19002379 82.16196427 55.375 83.58984375 C55.97957031 84.31800293 56.58414063 85.04616211 57.20703125 85.79638672 C60.01329043 89.24536484 62.66739027 92.8017741 65.3125 96.375 C69.31740767 101.77916534 73.40174134 107.07854281 77.671875 112.27734375 C79 114 79 114 79 115 C57.27376447 117.84623173 57.27376447 117.84623173 50.63769531 113.42675781 C46.64203484 109.28645805 43.93977705 104.3948989 41.28320312 99.32617188 C39.41706707 95.9432677 37.1002657 93.00488174 34.6875 90 C31 85.23339318 31 85.23339318 31 83 C29.70756532 84.1241176 28.41607925 85.24932592 27.125 86.375 C26.40570312 87.00148438 25.68640625 87.62796875 24.9453125 88.2734375 C21.87024248 90.76069907 21.87024248 90.76069907 20.68115234 94.33837891 C20.64973145 95.29147949 20.61831055 96.24458008 20.5859375 97.2265625 C20.54726563 98.2578125 20.50859375 99.2890625 20.46875 100.3515625 C20.4378125 101.43179687 20.406875 102.51203125 20.375 103.625 C20.33632813 104.71296875 20.29765625 105.8009375 20.2578125 106.921875 C20.16334154 109.61429745 20.08057419 112.30712584 20 115 C13.4 115 6.8 115 0 115 C0 77.05 0 39.1 0 0 Z " fill="#D8BC55" transform="translate(511,990)"/>
<path d="M0 0 C9.05774285 5.42582323 14.89612145 13.18462767 17.52734375 23.41015625 C19.38351401 33.58074205 17.75019545 43.70635516 12.421875 52.6484375 C6.14801642 61.1548854 -0.571331 65.21379846 -11 67 C-21.85582166 68.13688043 -29.6339272 65.46640755 -38.14453125 58.7734375 C-46.07238826 51.19607522 -48.91201352 42.00134597 -49.3125 31.3125 C-49.18411625 20.93909266 -45.29254215 12.34973856 -38 5 C-27.02753318 -3.90796087 -13.04572759 -6.10974909 0 0 Z " fill="#03204B" transform="translate(225,1019)"/>
<path d="M0 0 C6.93 0 13.86 0 21 0 C21.01401855 2.25457031 21.01401855 2.25457031 21.02832031 4.5546875 C21.06831798 10.15345439 21.13410507 15.75167746 21.20751953 21.35009766 C21.23567231 23.76897168 21.25691502 26.18793673 21.27099609 28.60693359 C21.29250367 32.09259449 21.33919693 35.57716752 21.390625 39.0625 C21.39185364 40.13677246 21.39308228 41.21104492 21.39434814 42.31787109 C21.53719795 49.71045795 22.51613204 55.6217038 28.0625 61 C33.98048667 63.01463376 39.79053822 62.98636687 45.5 60.4375 C50.89487153 55.17750026 51.35245926 49.64380531 51.49235535 42.4311676 C51.49874527 41.35173386 51.50513519 40.27230011 51.51171875 39.16015625 C51.52966995 38.03806259 51.54762115 36.91596893 51.56611633 35.75987244 C51.6200749 32.19411925 51.65406951 28.62849885 51.6875 25.0625 C51.72068573 22.63735138 51.75517655 20.21222024 51.79101562 17.78710938 C51.87579349 11.85816892 51.94267415 5.92926686 52 0 C58.93 0 65.86 0 73 0 C73.04957095 7.54393565 73.08580083 15.08777571 73.10986328 22.63183594 C73.11989845 25.19630587 73.13352955 27.76076443 73.15087891 30.32519531 C73.17523621 34.01890884 73.18650824 37.71247059 73.1953125 41.40625 C73.20563507 42.5461438 73.21595764 43.6860376 73.22659302 44.86047363 C73.22817308 56.16231235 71.16375489 65.70433595 62.9921875 74.05078125 C53.11642281 82.31598217 42.48044761 84.14164947 29.97265625 83.22314453 C20.6484912 82.16840606 12.4066843 77.29903787 6.4375 70.12109375 C0.39594152 61.22058349 -0.4367226 51.69800314 -0.29296875 41.2109375 C-0.28872391 40.02650055 -0.28447906 38.8420636 -0.28010559 37.62173462 C-0.26343533 33.87258287 -0.22580413 30.12398679 -0.1875 26.375 C-0.17243814 23.81901823 -0.15875237 21.26302796 -0.14648438 18.70703125 C-0.11356989 12.47114304 -0.06186806 6.23566544 0 0 Z " fill="#D5B955" transform="translate(283,1024)"/>
<path d="M0 0 C0.763125 0.350625 1.52625 0.70125 2.3125 1.0625 C5.13930809 4.30809448 4.41631551 8.05200097 4.25 12.1875 C4.23195313 13.03248047 4.21390625 13.87746094 4.1953125 14.74804688 C4.14820586 16.83251573 4.07646233 18.91640144 4 21 C2.69289063 20.3503125 2.69289063 20.3503125 1.359375 19.6875 C-6.52644402 16.00062358 -13.10919827 13.62199198 -22 15 C-23.68725171 15.61270213 -25.36211002 16.26546706 -27 17 C-27.2475 18.2375 -27.495 19.475 -27.75 20.75 C-27.88921875 21.44609375 -28.0284375 22.1421875 -28.171875 22.859375 C-28.166081 25.11327335 -28.166081 25.11327335 -26.625 27.0546875 C-22.1585093 30.36467614 -16.88648776 31.5691892 -11.6171875 33.1796875 C-4.18759838 35.58928397 2.37752417 38.85044334 6.5 45.75 C8.89766346 51.40547525 9.05737567 56.82787299 7.1171875 62.6484375 C3.20693698 71.27170519 -2.29807727 75.62281405 -10.88671875 79.23828125 C-21.68753495 83.13136657 -33.70615722 81.68427677 -44 77 C-46.31 75.68 -48.62 74.36 -51 73 C-51 67.06 -51 61.12 -51 55 C-48.33072917 56.23697917 -45.66145833 57.47395833 -42.9921875 58.7109375 C-37.47343587 61.08846758 -32.98438353 62.29276045 -26.9375 62.3125 C-25.15666016 62.33763672 -25.15666016 62.33763672 -23.33984375 62.36328125 C-19.71663618 61.96917797 -17.8103403 61.30511059 -15 59 C-14.58274322 55.37400578 -14.58274322 55.37400578 -15 52 C-20.58008674 48.97852446 -26.08292825 46.58476681 -32.125 44.625 C-39.74122991 41.97299394 -44.58612484 38.69624635 -49 31.9375 C-51.14398142 25.7030277 -51.32331904 17.72293756 -49.12109375 11.52734375 C-45.00563272 4.47808872 -38.62727379 -0.5402722 -30.99609375 -3.3046875 C-20.53384337 -5.73269346 -9.69680511 -4.61679097 0 0 Z " fill="#D6BA55" transform="translate(1286,1026)"/>
<path d="M0 0 C3.96 0 7.92 0 12 0 C12 7.26 12 14.52 12 22 C20.25 22 28.5 22 37 22 C37 27.61 37 33.22 37 39 C28.75 39 20.5 39 12 39 C12.07415721 44.16031907 12.15712456 49.31895431 12.26245117 54.47851562 C12.2956122 56.23200627 12.32367142 57.98560138 12.34643555 59.73925781 C12.3801447 62.26672698 12.43246692 64.79324638 12.48828125 67.3203125 C12.49467117 68.09867462 12.5010611 68.87703674 12.50764465 69.6789856 C12.6615688 75.43585031 13.78517217 79.78517217 18 84 C25.22536085 84.9510304 31.30434793 83.63435491 38 81 C38 86.94 38 92.88 38 99 C28.16859421 104.0450635 19.34208841 107.53790684 8.13671875 104.12890625 C0.22520809 100.46728144 -4.35070673 95.55854326 -7.35624695 87.37678528 C-8.53887815 83.01042086 -8.36508649 78.65039289 -8.29296875 74.15625 C-8.28872391 73.14655151 -8.28447906 72.13685303 -8.28010559 71.09655762 C-8.26342214 67.89742443 -8.22578903 64.69894017 -8.1875 61.5 C-8.17243982 59.32032165 -8.15875375 57.14063335 -8.14648438 54.9609375 C-8.11355245 49.64037807 -8.06184181 44.32029875 -8 39 C-12.29 39 -16.58 39 -21 39 C-21.69662648 31.7725003 -21.69662648 31.7725003 -21 28 C-19.19672445 26.20569597 -17.42081233 25.33544642 -15.15234375 24.19921875 C-6.99180278 19.65242006 -3.57509412 8.12329078 0 0 Z " fill="#D7BA55" transform="translate(1182,1002)"/>
<path d="M0 0 C1.08410156 0.5053125 2.16820312 1.010625 3.28515625 1.53125 C6 4 6 4 6.47583008 6.10253906 C6.59179381 8.67688244 6.52319351 11.17751263 6.375 13.75 C6.33439453 15.08224609 6.33439453 15.08224609 6.29296875 16.44140625 C6.22236624 18.63008395 6.12385527 20.81379568 6 23 C5.24074219 22.65066406 4.48148437 22.30132813 3.69921875 21.94140625 C2.70535156 21.48636719 1.71148437 21.03132813 0.6875 20.5625 C-0.29863281 20.11003906 -1.28476562 19.65757813 -2.30078125 19.19140625 C-9.38778217 16.06327994 -17.66222503 15.36980888 -25.00390625 18.12890625 C-31.15151278 21.63789775 -34.74063836 25.22191508 -37 32 C-37.64027086 39.67275405 -37.87139621 46.69408221 -33 53 C-29.17440553 56.98925626 -25.28088991 59.73956185 -19.75 60.37109375 C-11.62039979 60.51505542 -5.76636607 59.72455032 1.70703125 56.09375 C4 55 4 55 6 55 C6.18964787 57.89890315 6.32785971 60.78538869 6.4375 63.6875 C6.52547852 64.91243164 6.52547852 64.91243164 6.61523438 66.16210938 C6.7836633 72.10524421 6.7836633 72.10524421 4.56884766 74.6340332 C-4.48452382 81.29192692 -15.07878079 82.02024129 -26 81 C-36.769109 78.68643183 -46.76128111 72.11207207 -53 63 C-54.55810173 60.41025413 -55.82155222 57.78113677 -57 55 C-57.30035156 54.34644531 -57.60070312 53.69289063 -57.91015625 53.01953125 C-61.8209142 43.32448945 -61.30118714 32.03121091 -57.2578125 22.48828125 C-50.84497217 9.80201017 -42.34463594 2.01898304 -29.14453125 -3.109375 C-19.40632845 -5.86752436 -8.94264005 -4.59178348 0 0 Z " fill="#D6BA55" transform="translate(487,1026)"/>
<path d="M0 0 C2.05078125 0.03255208 4.1015625 0.06510417 6.15234375 0.09765625 C3.41423778 7.32187656 0.67428265 14.54539404 -2.06681824 21.76847839 C-3.68227442 26.02556872 -5.29711482 30.28289152 -6.91113281 34.54052734 C-17.10063851 61.41780438 -27.35668291 88.26847693 -37.68675232 115.09204102 C-38.09949905 116.16381592 -38.51224579 117.23559082 -38.9375 118.33984375 C-39.55365929 119.93977173 -39.55365929 119.93977173 -40.18226624 121.57202148 C-44.45885466 132.67970856 -48.71755607 143.794223 -52.97265625 154.91015625 C-53.34111664 155.87260254 -53.70957703 156.83504883 -54.08920288 157.82666016 C-56.67590135 164.58344941 -59.26188207 171.34051323 -61.84765625 178.09765625 C-64.80547303 185.82702071 -67.76367503 193.55623748 -70.72265625 201.28515625 C-71.09186188 202.24958649 -71.4610675 203.21401672 -71.84146118 204.20767212 C-77.34993142 218.59510098 -82.87638112 232.97554504 -88.41107178 247.35290527 C-96.87337036 269.33544703 -105.29643951 291.33271759 -113.69458008 313.33984375 C-114.10875687 314.42500275 -114.52293365 315.51016174 -114.94966125 316.62820435 C-115.75737835 318.74647271 -116.56395606 320.86517595 -117.36930847 322.98434448 C-119.29907712 328.05960913 -121.24620139 333.12670889 -123.23242188 338.18017578 C-123.79542999 339.62409447 -123.79542999 339.62409447 -124.36981201 341.09718323 C-125.07292275 342.89866519 -125.78249698 344.69764361 -126.49981689 346.49351501 C-128.68659453 352.10934721 -128.68659453 352.10934721 -128.84765625 358.09765625 C-131.48765625 358.09765625 -134.12765625 358.09765625 -136.84765625 358.09765625 C-137.87995833 354.25535963 -137.80902941 352.05056961 -136.37573242 348.3527832 C-136.02714676 347.43502609 -135.6785611 346.51726898 -135.31941223 345.57170105 C-134.93041245 344.58639908 -134.54141266 343.60109711 -134.140625 342.5859375 C-133.74473679 341.55402786 -133.34884857 340.52211823 -132.94096375 339.4589386 C-131.65089477 336.10462719 -130.34319388 332.75749664 -129.03515625 329.41015625 C-128.14157662 327.09664076 -127.24916332 324.78267445 -126.35791016 322.46826172 C-124.22406505 316.93378466 -122.07749584 311.40435762 -119.92681885 305.87640381 C-118.20094804 301.43244021 -116.49795034 296.97989818 -114.7956543 292.52685547 C-112.82581962 287.37884157 -110.83559562 282.23869889 -108.84765625 277.09765625 C-108.20441099 275.43376273 -107.56118325 273.76986244 -106.91796875 272.10595703 C-106.56765594 271.19976624 -106.21734314 270.29357544 -105.85641479 269.35992432 C-105.11493538 267.44176939 -104.37350142 265.52359689 -103.6321106 263.60540771 C-101.78406947 258.82401292 -99.93550376 254.04282317 -98.08544922 249.26220703 C-94.35211404 239.61073222 -90.64269269 229.95069585 -86.96469116 220.27799988 C-82.19917235 207.75279744 -77.37249131 195.251029 -72.55664062 182.74511719 C-68.30454928 171.70193914 -64.05414586 160.65829956 -59.84765625 149.59765625 C-54.78981019 136.29843614 -49.66981904 123.02313649 -44.55664062 109.74511719 C-38.95870771 95.20663132 -33.38214814 80.6604128 -27.84765625 66.09765625 C-27.18897826 64.36490376 -26.53028674 62.6321564 -25.87158203 60.89941406 C-25.54335953 60.03600906 -25.21513702 59.17260406 -24.87696838 58.28303528 C-11.61733185 23.40436862 -11.61733185 23.40436862 -6.41015625 10.03515625 C-6.05123291 9.10912598 -5.69230957 8.1830957 -5.32250977 7.22900391 C-2.54379792 0.13445021 -2.54379792 0.13445021 0 0 Z " fill="#151E2A" transform="translate(650.84765625,1397.90234375)"/>
<path d="M0 0 C0 7.59 0 15.18 0 23 C-2.475 22.01 -2.475 22.01 -5 21 C-10.07329643 20.36491486 -14.54283466 20.35548456 -19.25 22.4375 C-24.49870132 27.32833532 -29.24879525 31.88984297 -29.88647461 39.33618164 C-29.92670918 41.27709674 -29.93053318 43.21902885 -29.90234375 45.16015625 C-29.92078087 46.70587563 -29.92078087 46.70587563 -29.93959045 48.28282166 C-29.97114251 51.54345358 -29.95509413 54.80180069 -29.9375 58.0625 C-29.95061937 60.28582816 -29.96686439 62.5091402 -29.98632812 64.73242188 C-30.03285912 70.15631728 -30.01488757 75.57454402 -30 81 C-36.93 81 -43.86 81 -51 81 C-51 54.27 -51 27.54 -51 0 C-44.07 0 -37.14 0 -30 0 C-29.67 3.96 -29.34 7.92 -29 12 C-27.824375 10.5975 -26.64875 9.195 -25.4375 7.75 C-18.92271361 0.5302978 -10.02211703 -5.01105852 0 0 Z " fill="#D3B855" transform="translate(807,1024)"/>
<path d="M0 0 C2.64 0 5.28 0 8 0 C7.45817256 5.63187503 5.92600132 10.07873553 3.59765625 15.2109375 C3.07430946 16.39298264 3.07430946 16.39298264 2.54039001 17.59890747 C1.38907875 20.19457211 0.22572852 22.78465693 -0.9375 25.375 C-1.75418087 27.21117711 -2.56991994 29.04777337 -3.38476562 30.88476562 C-5.07822258 34.70052833 -6.77571701 38.51445586 -8.47607422 42.32714844 C-11.98095722 50.19425527 -15.4364558 58.08292464 -18.89212036 65.97174072 C-20.75904727 70.23219928 -22.62972698 74.49100955 -24.5 78.75 C-25.25001768 80.45832557 -26.00001769 82.1666589 -26.75 83.875 C-40.25 114.625 -53.75 145.375 -67.25 176.125 C-67.62118958 176.97048904 -67.99237915 177.81597809 -68.37481689 178.68708801 C-69.12542225 180.39679683 -69.87603261 182.10650345 -70.62664795 183.81620789 C-72.49242677 188.06597843 -74.35812097 192.31578608 -76.22363281 196.56567383 C-79.70832571 204.5040327 -83.19384708 212.4420247 -86.68225098 220.37875366 C-88.31306442 224.0892758 -89.94341403 227.80000165 -91.57373047 231.51074219 C-92.34400768 233.26361047 -93.11450703 235.01638115 -93.88525391 236.76904297 C-94.6114578 238.42044156 -95.33725781 240.07201783 -96.06262207 241.7237854 C-96.75136185 243.29087924 -97.44166786 244.85728581 -98.13366699 246.42294312 C-99.69902011 249.97557522 -101.22912225 253.53402705 -102.66992188 257.13916016 C-102.93081604 257.78162186 -103.19171021 258.42408356 -103.46051025 259.08601379 C-104.14790213 260.78897109 -104.81929202 262.49836395 -105.48925781 264.20825195 C-107.2232335 267.41252021 -108.95886629 269.02398459 -112 271 C-114.3125 270.75 -114.3125 270.75 -116 270 C-115.32813039 265.32602519 -113.50944875 261.25795416 -111.59765625 256.984375 C-111.24875839 256.19351501 -110.89986053 255.40265503 -110.54039001 254.58782959 C-109.38569177 251.97315913 -108.22404144 249.36163672 -107.0625 246.75 C-106.24621318 244.90453193 -105.43046679 243.05882472 -104.61523438 241.21289062 C-102.92022835 237.37602124 -101.22289479 233.54019425 -99.52392578 229.70507812 C-96.03306214 221.82040612 -92.57045229 213.92337085 -89.10787964 206.02624512 C-87.23995143 201.7668975 -85.36985792 197.50850074 -83.5 193.25 C-82.74998981 191.54167114 -81.9999898 189.83333781 -81.25 188.125 C-67.75 157.375 -54.25 126.625 -40.75 95.875 C-40.37881042 95.02951096 -40.00762085 94.18402191 -39.62518311 93.31291199 C-38.87457775 91.60320317 -38.12396739 89.89349655 -37.37335205 88.18379211 C-35.50757323 83.93402157 -33.64187903 79.68421392 -31.77636719 75.43432617 C-28.29167429 67.4959673 -24.80615292 59.5579753 -21.31774902 51.62124634 C-19.68693558 47.9107242 -18.05658597 44.19999835 -16.42626953 40.48925781 C-15.65599232 38.73638953 -14.88549297 36.98361885 -14.11474609 35.23095703 C-12.04876186 30.5328778 -9.98705677 25.83297693 -7.93237305 21.12994385 C-7.02198179 19.05021593 -6.10584393 16.97308574 -5.18945312 14.89599609 C-4.64160508 13.64304439 -4.09406004 12.38996014 -3.546875 11.13671875 C-3.07604492 10.06510498 -2.60521484 8.99349121 -2.12011719 7.8894043 C-1.09399305 5.24246027 -0.45023497 2.79590758 0 0 Z " fill="#161E2A" transform="translate(647,1756)"/>
<path d="M0 0 C0 2.64 0 5.28 0 8 C-2.31 8.33 -4.62 8.66 -7 9 C-6.89300781 9.58007812 -6.78601562 10.16015625 -6.67578125 10.7578125 C-5.85487159 16.10696576 -5.77197647 19.37316627 -9 24 C-15.06005326 29.74110309 -20.59296101 30.32852115 -28.73632812 30.390625 C-30.93320161 30.42812887 -30.93320161 30.42812887 -34 31 C-35.23908398 32.97220923 -35.23908398 32.97220923 -36 35 C-35.00202393 35.02187378 -35.00202393 35.02187378 -33.98388672 35.04418945 C-30.94702886 35.11901365 -27.91122909 35.21556016 -24.875 35.3125 C-23.82828125 35.33505859 -22.7815625 35.35761719 -21.703125 35.38085938 C-14.79843038 35.62121267 -10.44121412 36.73604334 -4.625 40.5625 C-2.00361812 44.49457282 -2.42621095 48.42459121 -3 53 C-4.2352743 56.97052453 -6.57488991 58.66434733 -10 60.8125 C-18.37221271 64.70884642 -29.2156652 64.37652524 -38.0859375 62.265625 C-42.4716621 60.48802234 -45.68190001 58.23305215 -48 54 C-48.64766764 50.11399418 -48.40112257 48.59476795 -46.1875 45.3125 C-42.6 41.52 -42.6 41.52 -41 40 C-41.515625 39.608125 -42.03125 39.21625 -42.5625 38.8125 C-44 37 -44 37 -43.875 34.5 C-42.9488868 31.85396227 -42.25107941 30.64501957 -40 29 C-39.01 29 -38.02 29 -37 29 C-37.63228516 28.29423828 -37.63228516 28.29423828 -38.27734375 27.57421875 C-38.82519531 26.95160156 -39.37304688 26.32898437 -39.9375 25.6875 C-40.75541016 24.76517578 -40.75541016 24.76517578 -41.58984375 23.82421875 C-44.14749287 20.51557016 -44.35225361 17.15711069 -44.26953125 13.05859375 C-43.72483594 8.89838463 -41.6443036 6.33031598 -38.4453125 3.7421875 C-32.27941054 -0.04203559 -24.99753937 0.09892475 -18 1 C-16.96617188 1.52980469 -15.93234375 2.05960938 -14.8671875 2.60546875 C-12.15122487 4.25225689 -12.15122487 4.25225689 -9.515625 3.671875 C-8.76796875 3.36765625 -8.0203125 3.0634375 -7.25 2.75 C-6.49203125 2.45609375 -5.7340625 2.1621875 -4.953125 1.859375 C-0.72727273 0 -0.72727273 0 0 0 Z " fill="#F5F6F8" transform="translate(1245,1213)"/>
<path d="M0 0 C28 0 28 0 38 5 C42.62818699 9.62818699 45.0036585 13.67987743 45.4375 20.1875 C45.27699419 25.84296952 43.31726162 30.45265333 40 35 C35.20455241 39.07706342 30.42217783 41.13589199 24.11328125 41.09765625 C23.26805908 41.09515869 22.42283691 41.09266113 21.55200195 41.09008789 C20.48296631 41.08098389 19.41393066 41.07187988 18.3125 41.0625 C13.2078125 41.0315625 13.2078125 41.0315625 8 41 C8 48.92 8 56.84 8 65 C5.36 65 2.72 65 0 65 C0 43.55 0 22.1 0 0 Z " fill="#FAFAFB" transform="translate(601,1197)"/>
<path d="M0 0 C10.89 0 21.78 0 33 0 C33 26.73 33 53.46 33 81 C26.4 81 19.8 81 13 81 C13 59.88 13 38.76 13 17 C8.71 17 4.42 17 0 17 C0 11.39 0 5.78 0 0 Z " fill="#D7BB55" transform="translate(375,1024)"/>
<path d="M0 0 C2.64 0 5.28 0 8 0 C8.33 1.98 8.66 3.96 9 6 C9.94875 5.195625 10.8975 4.39125 11.875 3.5625 C16.95020334 -0.74038979 21.48251407 -0.49850459 28 0 C33.81263761 1.93754587 37.33773222 5.75102207 40.1171875 11.18359375 C42.77664366 19.66796495 42.1079867 31.04087832 38.27734375 39.04296875 C35.64643951 43.07380368 32.61222466 45.46259178 28 47 C25.328125 47.30859375 25.328125 47.30859375 22.25 47.4375 C20.74179687 47.52837891 20.74179687 47.52837891 19.203125 47.62109375 C16 47 16 47 9 41 C8.67 47.6 8.34 54.2 8 61 C5.36 61 2.72 61 0 61 C0 40.87 0 20.74 0 0 Z " fill="#F9F9FA" transform="translate(815,1215)"/>
<path d="M0 0 C5.9403573 3.56868922 9.7666334 8.05160303 12.03125 14.6953125 C13.97032518 23.1351721 13.11332963 31.62133335 8.57421875 39.05859375 C4.81943318 43.25768109 0.48693123 46.74622765 -5.23046875 47.359375 C-12.78166934 47.38819638 -17.30519138 46.81632433 -23.11328125 41.68359375 C-29.30695944 34.65293202 -29.79983578 28.76550914 -29.6953125 19.60546875 C-29.1456297 12.37196178 -26.68728898 7.91197097 -21.36328125 3.05859375 C-15.45607781 -1.83950968 -7.21147629 -2.79865666 0 0 Z " fill="#F2F4F6" transform="translate(715.42578125,1215.94140625)"/>
<path d="M0 0 C5.97401087 4.22551988 9.66081502 8.72440146 11.5625 15.8125 C12.51474651 24.13263368 12.23549247 31.67362877 7.5625 38.8125 C3.70512762 43.48195078 -0.09577633 46.38359047 -6.20703125 47.16796875 C-13.32140389 47.49907792 -18.03536779 46.5344606 -23.4375 41.8125 C-28.8262217 36.56941942 -30.57376291 29.7189526 -30.875 22.375 C-30.65661551 15.87806137 -29.16085799 9.86443018 -24.75390625 4.92578125 C-17.43898695 -1.57112557 -9.46304773 -3.26905285 0 0 Z " fill="#F3F4F6" transform="translate(325.4375,1216.1875)"/>
<path d="M0 0 C4.72608697 2.96481232 8.91324374 7.95202322 10.88671875 13.18359375 C11.71045959 21.41142376 12.06933784 30.28783112 6.88671875 37.18359375 C0.8432381 43.01654331 -4.2601547 44.52423256 -12.51953125 44.390625 C-18.25683794 43.93267733 -22.44450211 42.2746412 -26.42578125 38.05859375 C-30.91102859 32.24121573 -32.69094909 25.67897809 -32.3984375 18.37890625 C-31.54599508 11.81626735 -28.85774074 6.82262081 -24.11328125 2.18359375 C-16.87986965 -3.01542084 -8.15606704 -3.45764303 0 0 Z " fill="#03204B" transform="translate(870.11328125,1042.81640625)"/>
<path d="M0 0 C5.72554761 3.58436259 9.27637934 7.38773176 11.43359375 13.859375 C12.17173536 21.8095232 11.65940802 28.93544609 7.43359375 35.859375 C3.78309523 39.94183506 -0.53651061 43.45476161 -6.08203125 44.1953125 C-12.66559716 44.28936344 -17.06498357 43.47690714 -22.56640625 39.859375 C-23.241875 39.52808594 -23.91734375 39.19679688 -24.61328125 38.85546875 C-27.05300131 37.37699839 -28.15172638 36.36391398 -29.56640625 33.859375 C-30.88868879 24.99018732 -30.84793926 15.4709961 -25.56640625 7.859375 C-19.03888863 -0.07949778 -9.96094344 -4.42708597 0 0 Z " fill="#04214B" transform="translate(1118.56640625,1043.140625)"/>
<path d="M0 0 C3.99974981 -0.11710979 7.99905281 -0.18755489 12 -0.25 C13.12535156 -0.28351562 14.25070312 -0.31703125 15.41015625 -0.3515625 C23.4024088 -0.44503914 28.98379739 0.45629181 35.05859375 5.81640625 C35.74115234 6.68072266 35.74115234 6.68072266 36.4375 7.5625 C36.91058594 8.14128906 37.38367188 8.72007813 37.87109375 9.31640625 C40.83374716 13.73475787 40.53697315 18.90253655 40 24 C38.21020063 29.91145165 35.04503582 33.56937564 30 37 C21.66364488 41.16817756 11.63665792 39.28725063 3.08203125 36.75390625 C1 36 1 36 0 35 C-0.08851529 32.40640678 -0.11525945 29.83960309 -0.09765625 27.24609375 C-0.09553383 26.08292381 -0.09553383 26.08292381 -0.09336853 24.89625549 C-0.08775345 22.40996506 -0.07519846 19.9237634 -0.0625 17.4375 C-0.05748694 15.75586067 -0.0529237 14.07421994 -0.04882812 12.39257812 C-0.03777913 8.26168434 -0.02050445 4.13085724 0 0 Z " fill="#03214B" transform="translate(675,1019)"/>
<path d="M0 0 C2.83326791 1.09291676 4.66040256 1.89014054 6.18359375 4.578125 C6.58191406 5.51398438 6.58191406 5.51398438 6.98828125 6.46875 C7.54257812 6.04722656 8.096875 5.62570312 8.66796875 5.19140625 C9.39242187 4.64355469 10.116875 4.09570312 10.86328125 3.53125 C11.58257813 2.98597656 12.301875 2.44070313 13.04296875 1.87890625 C17.42764812 -1.29954606 21.7201461 -1.09858763 26.98828125 -0.53125 C32.11826118 1.84374071 34.86062147 5.30286952 36.98828125 10.46875 C37.48377503 13.34169954 37.4588231 16.11897453 37.37890625 19.02734375 C37.37324646 19.81649673 37.36758667 20.60564972 37.36175537 21.41871643 C37.33953811 23.91520374 37.28937344 26.41020375 37.23828125 28.90625 C37.21819713 30.60870309 37.19994972 32.31117889 37.18359375 34.01367188 C37.13972197 38.16592914 37.07080033 42.31708828 36.98828125 46.46875 C34.34828125 46.46875 31.70828125 46.46875 28.98828125 46.46875 C28.97369873 45.45973633 28.95911621 44.45072266 28.9440918 43.41113281 C28.88604011 39.66110109 28.80880833 35.91166554 28.72583008 32.16210938 C28.6926129 30.54046314 28.6645709 28.91870219 28.6418457 27.296875 C28.6082397 24.96304523 28.55592365 22.63026365 28.5 20.296875 C28.49361008 19.57381165 28.48722015 18.85074829 28.4806366 18.10577393 C28.3609153 13.99048002 28.03429437 11.36338332 24.98828125 8.46875 C21.35045493 7.25614123 18.81092126 7.07330448 14.98828125 7.46875 C11.40032042 10.18151878 10.12854513 11.68413429 9.32885742 16.1574707 C9.28809298 17.569325 9.27351279 18.98210978 9.28125 20.39453125 C9.26612869 21.14212204 9.25100739 21.88971283 9.23542786 22.65995789 C9.19264044 25.03403087 9.18372245 27.40683031 9.17578125 29.78125 C9.15262967 31.39651802 9.12726294 33.01175591 9.09960938 34.62695312 C9.03684668 38.57433086 9.00444141 42.52091754 8.98828125 46.46875 C6.34828125 46.46875 3.70828125 46.46875 0.98828125 46.46875 C0.98417236 45.42944336 0.98006348 44.39013672 0.97583008 43.31933594 C0.95403151 39.45734295 0.89973598 35.59636779 0.83569336 31.73486328 C0.81251937 30.06471524 0.798119 28.39442119 0.79272461 26.72412109 C0.78342989 24.32036421 0.74243465 21.91890159 0.6953125 19.515625 C0.69924515 18.77068787 0.7031778 18.02575073 0.70722961 17.25823975 C0.60104932 13.47211337 0.2960907 11.7959167 -2.3371582 8.99707031 C-5.87119739 6.97761935 -7.99833757 6.89540983 -12.01171875 7.46875 C-14.82556358 8.90376549 -14.82556358 8.90376549 -17.01171875 11.46875 C-17.52826226 14.34119855 -17.73391693 16.64264691 -17.71875 19.515625 C-17.73387131 20.28682678 -17.74899261 21.05802856 -17.76457214 21.8526001 C-17.8074537 24.30828069 -17.81628681 26.7627323 -17.82421875 29.21875 C-17.84736296 30.88675143 -17.87272815 32.55472363 -17.90039062 34.22265625 C-17.96324657 38.30479614 -17.99557831 42.3861689 -18.01171875 46.46875 C-20.98171875 46.46875 -23.95171875 46.46875 -27.01171875 46.46875 C-27.01171875 31.28875 -27.01171875 16.10875 -27.01171875 0.46875 C-24.37171875 0.46875 -21.73171875 0.46875 -19.01171875 0.46875 C-18.68171875 2.11875 -18.35171875 3.76875 -18.01171875 5.46875 C-17.06296875 4.664375 -16.11421875 3.86 -15.13671875 3.03125 C-10.49004483 -0.90832137 -5.9164123 -1.56239237 0 0 Z " fill="#F4F5F7" transform="translate(765.01171875,1215.53125)"/>
<path d="M0 0 C3.76493787 2.32304677 5.96846564 4.87443127 7.9375 8.8125 C8.02433445 11.58410626 8.0530579 14.33024765 8.03515625 17.1015625 C8.0337413 17.91998627 8.03232635 18.73841003 8.03086853 19.58163452 C8.0252629 22.20029325 8.01270948 24.81886704 8 27.4375 C7.99498572 29.21093627 7.99042269 30.98437387 7.98632812 32.7578125 C7.97529164 37.10940782 7.95802325 41.4609395 7.9375 45.8125 C5.6275 45.8125 3.3175 45.8125 0.9375 45.8125 C0.9375 43.1725 0.9375 40.5325 0.9375 37.8125 C0.2775 37.8125 -0.3825 37.8125 -1.0625 37.8125 C-1.15789062 38.41578125 -1.25328125 39.0190625 -1.3515625 39.640625 C-2.46595109 43.0450209 -4.60365487 44.07808997 -7.609375 45.82421875 C-12.0723676 47.62220781 -16.35823415 47.58935124 -21.0625 46.8125 C-25.49227671 44.6767148 -28.25863671 42.42237286 -30.0625 37.8125 C-30.72812227 32.90661737 -30.57534979 29.01658211 -28.625 24.4375 C-23.91409033 19.61169009 -19.43691386 17.80317805 -12.6953125 17.5703125 C-8.47829844 17.52361831 -4.27572921 17.63835964 -0.0625 17.8125 C-0.19914062 16.53246094 -0.33578125 15.25242187 -0.4765625 13.93359375 C-0.55342285 13.21357178 -0.6302832 12.4935498 -0.70947266 11.75170898 C-0.94329346 9.69083746 -0.94329346 9.69083746 -2.4375 7.875 C-6.18047766 5.42766845 -9.72539395 5.51338924 -14.0625 5.8125 C-17.1441964 7.18214285 -18.63820471 8.10534118 -20.375 11 C-20.601875 11.598125 -20.82875 12.19625 -21.0625 12.8125 C-23.3725 12.8125 -25.6825 12.8125 -28.0625 12.8125 C-27.60875711 7.93476395 -26.54072112 5.29072112 -23.0625 1.8125 C-16.9124221 -2.76063485 -7.05205511 -2.671233 0 0 Z " fill="#F6F7F9" transform="translate(1042.0625,1216.1875)"/>
<path d="M0 0 C5.95909447 3.56201512 8.99175977 7.58877443 11.578125 14.0546875 C11.578125 17.6846875 11.578125 21.3146875 11.578125 25.0546875 C1.018125 25.0546875 -9.541875 25.0546875 -20.421875 25.0546875 C-19.11237732 33.34575152 -19.11237732 33.34575152 -16.484375 37.1171875 C-11.92271726 40.00313424 -7.6734478 40.07188403 -2.421875 39.0546875 C0.73035075 36.82478221 0.73035075 36.82478221 2.578125 34.0546875 C3.578125 33.0546875 3.578125 33.0546875 7.140625 32.9921875 C8.275 33.0128125 9.409375 33.0334375 10.578125 33.0546875 C10.50459657 36.14288147 10.20098968 38.3217031 8.1640625 40.71875 C2.33630315 45.93035858 -3.12369453 47.554155 -10.89453125 47.3671875 C-16.50082622 46.67398256 -20.21044962 44.21227175 -24.234375 40.3671875 C-29.03205401 33.10213071 -30.4936156 25.70168553 -29.421875 17.0546875 C-27.68532745 9.88109226 -24.63090562 5.08511089 -18.421875 1.0546875 C-13.0339846 -2.21653167 -5.81229081 -2.26866835 0 0 Z " fill="#F2F4F6" transform="translate(466.421875,1215.9453125)"/>
<path d="M0 0 C13.2 0 26.4 0 40 0 C40 2.31 40 4.62 40 7 C29.44 7 18.88 7 8 7 C8 13.93 8 20.86 8 28 C17.24 28 26.48 28 36 28 C36 30.31 36 32.62 36 35 C26.76 35 17.52 35 8 35 C8 42.26 8 49.52 8 57 C18.56 57 29.12 57 40 57 C40 59.31 40 61.62 40 64 C26.8 64 13.6 64 0 64 C0 42.88 0 21.76 0 0 Z " fill="#FCFDFD" transform="translate(179,1198)"/>
<path d="M0 0 C4.83953203 3.5054405 7.7723924 7.96272468 10.0546875 13.48828125 C10.0546875 14.80828125 10.0546875 16.12828125 10.0546875 17.48828125 C7.0846875 17.48828125 4.1146875 17.48828125 1.0546875 17.48828125 C0.84714844 16.885 0.63960937 16.28171875 0.42578125 15.66015625 C-1.44953237 10.79532595 -3.03421916 7.34262481 -7.88671875 5.078125 C-13.35841238 3.51033422 -18.16297237 3.66312378 -23.3203125 6.05078125 C-27.44304615 9.87903393 -30.61323111 14.73232625 -31.12231445 20.49023438 C-31.83105516 35.53523186 -31.83105516 35.53523186 -26.9453125 49.48828125 C-23.23000069 53.29421042 -19.89428664 54.62812493 -14.6328125 54.80078125 C-10.02128361 54.7482923 -7.49680267 53.53241569 -3.9453125 50.48828125 C-1.46309227 47.74010885 -0.19862753 44.9589998 1.0546875 41.48828125 C4.0246875 41.48828125 6.9946875 41.48828125 10.0546875 41.48828125 C8.48557278 48.32907088 6.68655657 53.99945537 1.0546875 58.48828125 C-5.79989054 62.60591547 -13.08020953 63.67115953 -20.9453125 62.48828125 C-28.98239646 59.92999819 -34.02900999 55.51890307 -38.1953125 48.33203125 C-42.77578788 38.28043249 -43.12003201 23.09469625 -39.3828125 12.67578125 C-36.06344171 6.16515574 -31.2012021 0.07469073 -24.37109375 -2.8828125 C-15.89481312 -5.08036674 -7.5744744 -4.40809576 0 0 Z " fill="#F6F7F8" transform="translate(959.9453125,1200.51171875)"/>
<path d="M0 0 C4.30759624 1.72012303 7.13520072 3.59652999 9.58740234 7.57617188 C11.31015749 11.75175401 11.38419675 15.00384893 11.29296875 19.4609375 C11.28872391 20.25150543 11.28447906 21.04207336 11.28010559 21.8565979 C11.26341301 24.3630894 11.22577983 26.86875461 11.1875 29.375 C11.17244092 31.08201958 11.15875466 32.78905185 11.14648438 34.49609375 C11.11354056 38.66437725 11.06182493 42.83204889 11 47 C8.36 47 5.72 47 3 47 C2.98541748 45.99098633 2.97083496 44.98197266 2.95581055 43.94238281 C2.89775886 40.19235109 2.82052708 36.44291554 2.73754883 32.69335938 C2.70433165 31.07171314 2.67628965 29.44995219 2.65356445 27.828125 C2.61995845 25.49429523 2.5676424 23.16151365 2.51171875 20.828125 C2.50532883 20.10506165 2.4989389 19.38199829 2.49235535 18.63702393 C2.37263405 14.52173002 2.04601312 11.89463332 -1 9 C-5.9304428 7.35651907 -10.26388569 7.18735075 -14.9375 9.375 C-17.09702406 10.83921726 -17.09702406 10.83921726 -18 13 C-18.15644172 15.55106029 -18.25821389 18.07918663 -18.31640625 20.6328125 C-18.33718735 21.38464813 -18.35796844 22.13648376 -18.37937927 22.91110229 C-18.44482705 25.31564085 -18.50373738 27.72028967 -18.5625 30.125 C-18.60568977 31.75391771 -18.64930421 33.38282422 -18.69335938 35.01171875 C-18.80050351 39.00769915 -18.90178433 43.00379059 -19 47 C-21.64 47 -24.28 47 -27 47 C-27 31.82 -27 16.64 -27 1 C-24.36 1 -21.72 1 -19 1 C-18.67 2.32 -18.34 3.64 -18 5 C-17.53851562 4.6390625 -17.07703125 4.278125 -16.6015625 3.90625 C-11.15710229 0.032721 -6.6385338 -1.30456132 0 0 Z " fill="#FBFCFC" transform="translate(1177,1215)"/>
<path d="M0 0 C3.22029868 1.89468717 5.02323201 3.77683004 6.4375 7.3125 C6.4375 8.6325 6.4375 9.9525 6.4375 11.3125 C1.07486264 11.75206044 1.07486264 11.75206044 -1.5625 11.3125 C-3.375 8.875 -3.375 8.875 -4.5625 6.3125 C-8.82050538 4.89316487 -12.79161538 4.58598323 -17 6.3125 C-17.515625 6.6425 -18.03125 6.9725 -18.5625 7.3125 C-18.5625 9.6225 -18.5625 11.9325 -18.5625 14.3125 C-13.88672595 16.53744562 -9.31679223 18.45247463 -4.3125 19.8125 C0.40499445 21.16768086 3.92260624 22.83643227 6.5703125 27.1640625 C8.08598472 30.91910628 7.37604174 34.45481741 6.4375 38.3125 C4.28209806 42.12590343 1.76264022 44.25494753 -2.37890625 45.8046875 C-9.40192926 47.43794866 -16.63917642 47.2862026 -22.9375 43.5859375 C-25.57814785 41.51658365 -27.0739717 39.28955661 -28.5625 36.3125 C-28.5625 34.9925 -28.5625 33.6725 -28.5625 32.3125 C-26.2525 32.3125 -23.9425 32.3125 -21.5625 32.3125 C-21.335625 32.910625 -21.10875 33.50875 -20.875 34.125 C-19.10206902 37.07988497 -17.74675322 37.95749863 -14.5625 39.3125 C-10.43629493 39.85774853 -6.86852356 39.85402197 -3 38.25 C-0.8722683 35.38218771 -1.47003405 32.7900237 -1.5625 29.3125 C-2.10664551 29.15692627 -2.65079102 29.00135254 -3.21142578 28.84106445 C-5.70819223 28.1177295 -8.19759777 27.37160558 -10.6875 26.625 C-11.5434375 26.38072266 -12.399375 26.13644531 -13.28125 25.88476562 C-18.78086975 24.21372732 -22.5042641 22.42908114 -26.5625 18.3125 C-27.81633575 14.55099274 -28.31769945 11.20248961 -27.5625 7.3125 C-21.87114572 -2.50413121 -10.09014791 -4.6153084 0 0 Z " fill="#F3F5F7" transform="translate(515.5625,1216.6875)"/>
<path d="M0 0 C3.37493951 2.04223945 5.23528536 3.65956866 7.44921875 6.98046875 C7.57421875 9.66796875 7.57421875 9.66796875 7.44921875 11.98046875 C4.13671875 12.29296875 4.13671875 12.29296875 0.44921875 11.98046875 C-1.30078125 9.54296875 -1.30078125 9.54296875 -2.55078125 6.98046875 C-7.16761589 5.44152387 -11.60435206 5.10457562 -16.05078125 7.10546875 C-18.15783257 9.7392829 -17.84179347 11.70658132 -17.55078125 14.98046875 C-13.79966086 17.10948302 -10.30502988 18.36714471 -6.11328125 19.41796875 C-0.11572337 20.97864117 4.88524207 22.63450373 8.44921875 27.98046875 C9.03944452 32.50297791 8.97651334 36.67610846 7.26171875 40.91796875 C3.62483088 45.05649632 -0.46145718 46.70726322 -5.84765625 47.18359375 C-12.22033152 47.30536462 -18.1145345 46.95513012 -23.12109375 42.62109375 C-25.82382017 39.62492846 -27.19669503 36.99344596 -27.55078125 32.98046875 C-22.20583535 32.54235843 -22.20583535 32.54235843 -19.55078125 32.98046875 C-17.80078125 35.35546875 -17.80078125 35.35546875 -16.55078125 37.98046875 C-12.43815686 40.59109119 -8.278923 40.68318339 -3.55078125 39.98046875 C-0.54218306 37.99919677 0.24404671 36.91514139 1.01171875 33.41796875 C0.6880683 30.8029727 0.6880683 30.8029727 -1.65625 29.44140625 C-4.88255518 27.8130147 -7.91421679 27.00936111 -11.42578125 26.16796875 C-22.7058435 22.99248904 -22.7058435 22.99248904 -25.55078125 17.98046875 C-26.61459375 12.85002551 -26.43285099 8.60890519 -23.92578125 3.98046875 C-17.19409248 -1.68832179 -8.38709 -3.35226721 0 0 Z " fill="#F6F7F9" transform="translate(558.55078125,1216.01953125)"/>
<path d="M0 0 C3.8242997 2.03747045 6.50736009 4.9340759 8 9 C8.2446335 11.83888642 8.3701245 14.53745756 8.375 17.375 C8.39949219 18.1175 8.42398438 18.86 8.44921875 19.625 C8.48204855 25.81888856 6.5064934 29.31447135 2.25 33.875 C-1.13100931 35.56550466 -4.34134809 35.51118889 -8 35 C-11.58311258 33.69704997 -13.35885973 31.86641988 -15.3125 28.6875 C-18.18894835 22.34757304 -18.38232164 14.24570217 -16.234375 7.6484375 C-12.46692819 0.6218502 -7.69127891 -1.43961546 0 0 Z " fill="#05234E" transform="translate(840,1221)"/>
<path d="M0 0 C4.35828623 2.22550786 6.02919498 5.21689657 7.49609375 9.7265625 C9.04906685 16.7329993 8.57244084 23.69740112 5 30 C2.71257267 32.77263919 1.18416951 33.81271784 -2.37109375 34.375 C-6.63524683 34.57775319 -9.2659109 34.42821864 -13 32.25 C-17.28680437 27.42734509 -17.36491892 23.36518862 -17.375 17.125 C-17.39949219 16.33480469 -17.42398437 15.54460937 -17.44921875 14.73046875 C-17.47612716 9.33981824 -16.60295056 6.25330264 -13 2 C-8.74060541 -0.83959639 -4.99777523 -0.62372235 0 0 Z " fill="#04224D" transform="translate(321,1222)"/>
<path d="M0 0 C3.6258538 2.11508138 5.5373704 4.10391242 7 8 C7.21882476 10.83619627 7.32467189 13.54138407 7.3125 16.375 C7.32861328 17.1175 7.34472656 17.86 7.36132812 18.625 C7.3656109 23.47309937 6.72286275 26.83272925 4 31 C1.13166277 33.820631 -0.95100643 34.43135748 -4.9375 34.4375 C-8.27385413 34.31483992 -9.91388431 34.04397397 -12.9375 32.5 C-17.6451675 26.79373637 -18.56568412 20.89488407 -18.35546875 13.6875 C-17.69581913 8.70025895 -15.87093424 4.72732308 -12.16796875 1.30859375 C-8.33698267 -1.00380326 -4.32515391 -0.63790763 0 0 Z " fill="#04224D" transform="translate(712,1222)"/>
<path d="M0 0 C2.805 -0.0825 5.61 -0.165 8.5 -0.25 C9.8003418 -0.30462402 9.8003418 -0.30462402 11.12695312 -0.36035156 C16.90483642 -0.44154575 21.1768672 0.76777024 26 4 C29.29973081 7.60908058 29.47260937 11.14566205 29.27734375 15.85546875 C28.87352079 18.97798712 28.09335761 20.63653173 26 23 C20.24326725 27.07018995 15.99670555 27.52204764 9.0625 27.25 C6.071875 27.1675 3.08125 27.085 0 27 C0 18.09 0 9.18 0 0 Z " fill="#03214C" transform="translate(609,1204)"/>
<path d="M0 0 C1.28132813 0.00902344 2.56265625 0.01804687 3.8828125 0.02734375 C4.87023437 0.03894531 5.85765625 0.05054688 6.875 0.0625 C6.875 2.0425 6.875 4.0225 6.875 6.0625 C6.16472656 6.12308594 5.45445312 6.18367188 4.72265625 6.24609375 C3.80355469 6.32988281 2.88445312 6.41367188 1.9375 6.5 C1.02097656 6.58121094 0.10445312 6.66242188 -0.83984375 6.74609375 C-3.08659732 6.82294976 -3.08659732 6.82294976 -4.125 8.0625 C-4.35787008 9.74433948 -4.53764166 11.4337416 -4.6875 13.125 C-4.831875 14.754375 -4.97625 16.38375 -5.125 18.0625 C-1.495 18.0625 2.135 18.0625 5.875 18.0625 C5.875 20.0425 5.875 22.0225 5.875 24.0625 C2.245 24.0625 -1.385 24.0625 -5.125 24.0625 C-5.125 37.2625 -5.125 50.4625 -5.125 64.0625 C-7.765 64.0625 -10.405 64.0625 -13.125 64.0625 C-13.125 50.8625 -13.125 37.6625 -13.125 24.0625 C-16.425 24.0625 -19.725 24.0625 -23.125 24.0625 C-23.125 22.0825 -23.125 20.1025 -23.125 18.0625 C-19.825 18.0625 -16.525 18.0625 -13.125 18.0625 C-13.17140625 17.25425781 -13.2178125 16.44601562 -13.265625 15.61328125 C-13.56305613 6.80719541 -13.56305613 6.80719541 -11.25 2.875 C-7.46787677 -0.35092863 -4.91777513 -0.04470705 0 0 Z " fill="#FAFBFB" transform="translate(250.125,1197.9375)"/>
<path d="M0 0 C1.18851562 0.00902344 2.37703125 0.01804687 3.6015625 0.02734375 C4.51679688 0.03894531 5.43203125 0.05054688 6.375 0.0625 C6.375 2.0425 6.375 4.0225 6.375 6.0625 C5.41787109 6.15337891 5.41787109 6.15337891 4.44140625 6.24609375 C3.61511719 6.32988281 2.78882813 6.41367188 1.9375 6.5 C0.70193359 6.62181641 0.70193359 6.62181641 -0.55859375 6.74609375 C-2.61162025 6.85180815 -2.61162025 6.85180815 -3.625 8.0625 C-3.85787008 9.74433948 -4.03764166 11.4337416 -4.1875 13.125 C-4.331875 14.754375 -4.47625 16.38375 -4.625 18.0625 C-0.995 18.0625 2.635 18.0625 6.375 18.0625 C6.375 20.0425 6.375 22.0225 6.375 24.0625 C2.745 24.0625 -0.885 24.0625 -4.625 24.0625 C-4.625 37.2625 -4.625 50.4625 -4.625 64.0625 C-7.265 64.0625 -9.905 64.0625 -12.625 64.0625 C-12.625 50.8625 -12.625 37.6625 -12.625 24.0625 C-15.925 24.0625 -19.225 24.0625 -22.625 24.0625 C-22.625 22.0825 -22.625 20.1025 -22.625 18.0625 C-19.325 18.0625 -16.025 18.0625 -12.625 18.0625 C-12.67140625 17.25425781 -12.7178125 16.44601562 -12.765625 15.61328125 C-13.06305613 6.80719541 -13.06305613 6.80719541 -10.75 2.875 C-7.08938806 -0.24728665 -4.75594376 -0.0466269 0 0 Z " fill="#FBFBFC" transform="translate(282.625,1197.9375)"/>
<path d="M0 0 C1.17046875 0.01804687 2.3409375 0.03609375 3.546875 0.0546875 C4.88492187 0.08949219 4.88492187 0.08949219 6.25 0.125 C6.25 2.105 6.25 4.085 6.25 6.125 C5.18458984 6.19847656 5.18458984 6.19847656 4.09765625 6.2734375 C3.17855469 6.34820313 2.25945312 6.42296875 1.3125 6.5 C0.39597656 6.56960938 -0.52054688 6.63921875 -1.46484375 6.7109375 C-2.21894531 6.84757812 -2.97304687 6.98421875 -3.75 7.125 C-4.89814997 9.42129994 -5.05769809 11.20198086 -5.3125 13.75 C-5.5290625 15.915625 -5.5290625 15.915625 -5.75 18.125 C-2.12 18.125 1.51 18.125 5.25 18.125 C5.25 20.105 5.25 22.085 5.25 24.125 C1.62 24.125 -2.01 24.125 -5.75 24.125 C-5.75 37.325 -5.75 50.525 -5.75 64.125 C-8.39 64.125 -11.03 64.125 -13.75 64.125 C-13.75 50.925 -13.75 37.725 -13.75 24.125 C-16.72 24.125 -19.69 24.125 -22.75 24.125 C-22.75 22.145 -22.75 20.165 -22.75 18.125 C-19.78 18.125 -16.81 18.125 -13.75 18.125 C-13.78480469 17.38894531 -13.81960938 16.65289063 -13.85546875 15.89453125 C-14.13353092 5.87105209 -14.13353092 5.87105209 -10.75 2.125 C-7.21945566 -0.20417856 -4.15565707 -0.08311314 0 0 Z " fill="#F7F8F9" transform="translate(1080.75,1197.875)"/>
<path d="M0 0 C2.31 0 4.62 0 7 0 C7 4.62 7 9.24 7 14 C10.3 14 13.6 14 17 14 C17 15.98 17 17.96 17 20 C13.7 20 10.4 20 7 20 C7.11796454 24.53916919 7.24219113 29.07810642 7.37231445 33.61694336 C7.41571985 35.16214289 7.45739071 36.70739214 7.49731445 38.25268555 C7.55488199 40.46939096 7.61861424 42.6858448 7.68359375 44.90234375 C7.70030624 45.5971434 7.71701874 46.29194305 7.73423767 47.00779724 C7.56502856 50.28762029 7.56502856 50.28762029 9 53 C10.34747084 53.23075082 11.70377565 53.41153063 13.0625 53.5625 C14.361875 53.706875 15.66125 53.85125 17 54 C17 55.98 17 57.96 17 60 C15.10489301 60.08160748 13.20875496 60.13946459 11.3125 60.1875 C9.72888672 60.23970703 9.72888672 60.23970703 8.11328125 60.29296875 C4.55898906 59.9584996 2.80290251 59.18439863 0 57 C-2.50055397 53.37725677 -2.25765549 49.62544771 -2.1953125 45.390625 C-2.19106766 44.30041046 -2.19106766 44.30041046 -2.18673706 43.18817139 C-2.17557523 40.87527749 -2.15047851 38.56277612 -2.125 36.25 C-2.11496501 34.67839102 -2.10584006 33.10677596 -2.09765625 31.53515625 C-2.07564904 27.68995378 -2.04114715 23.84504336 -2 20 C-4.31 20 -6.62 20 -9 20 C-9 18.02 -9 16.04 -9 14 C-6.36 14 -3.72 14 -1 14 C-0.67 9.38 -0.34 4.76 0 0 Z " fill="#F0F1F4" transform="translate(387,1202)"/>
<path d="M0 0 C1.98 0 3.96 0 6 0 C6 4.62 6 9.24 6 14 C9.3 14 12.6 14 16 14 C16 15.98 16 17.96 16 20 C12.7 20 9.4 20 6 20 C6.11796454 24.53916919 6.24219113 29.07810642 6.37231445 33.61694336 C6.41571985 35.16214289 6.45739071 36.70739214 6.49731445 38.25268555 C6.55488199 40.46939096 6.61861424 42.6858448 6.68359375 44.90234375 C6.70030624 45.5971434 6.71701874 46.29194305 6.73423767 47.00779724 C6.56502856 50.28762029 6.56502856 50.28762029 8 53 C9.34747084 53.23075082 10.70377565 53.41153063 12.0625 53.5625 C13.361875 53.706875 14.66125 53.85125 16 54 C16 55.98 16 57.96 16 60 C5.06713165 60.6277245 5.06713165 60.6277245 0.8125 58.125 C-2.43245972 54.32056447 -2.13141369 51.16390633 -2.09765625 46.3671875 C-2.0962413 45.61535187 -2.09482635 44.86351624 -2.09336853 44.08889771 C-2.08776465 41.6842249 -2.07521157 39.27964473 -2.0625 36.875 C-2.0574855 35.24609509 -2.0529225 33.61718873 -2.04882812 31.98828125 C-2.03779397 27.99215173 -2.02052679 23.99609158 -2 20 C-4.64 20 -7.28 20 -10 20 C-10 18.02 -10 16.04 -10 14 C-7.36 14 -4.72 14 -2 14 C-1.93941406 13.15695312 -1.87882813 12.31390625 -1.81640625 11.4453125 C-1.73261719 10.34960938 -1.64882813 9.25390625 -1.5625 8.125 C-1.48128906 7.03445313 -1.40007813 5.94390625 -1.31640625 4.8203125 C-1 2 -1 2 0 0 Z " fill="#F9FAFB" transform="translate(872,1202)"/>
<path d="M0 0 C1.98 0 3.96 0 6 0 C6 4.62 6 9.24 6 14 C9.63 14 13.26 14 17 14 C17 15.98 17 17.96 17 20 C13.37 20 9.74 20 6 20 C6.11814126 24.37844408 6.24238169 28.75665929 6.37231445 33.13476562 C6.41566589 34.62462641 6.45734084 36.11453695 6.49731445 37.60449219 C6.55501215 39.74429327 6.61870755 41.88384385 6.68359375 44.0234375 C6.72025146 45.31169434 6.75690918 46.59995117 6.79467773 47.92724609 C6.79530675 50.9127682 6.79530675 50.9127682 8 53 C10.12576782 53.46651207 10.12576782 53.46651207 12.5625 53.625 C13.38878906 53.69976563 14.21507812 53.77453125 15.06640625 53.8515625 C15.70449219 53.90054687 16.34257813 53.94953125 17 54 C17.042721 55.66611905 17.04063832 57.33382885 17 59 C15.20690039 60.79309961 12.67624022 60.29807043 10.25 60.375 C5.81173624 60.35389054 4.46391346 60.34566101 0.8125 57.625 C-2.07658421 53.44080908 -2.13362782 50.5448206 -2.09765625 45.5859375 C-2.0962413 44.85629791 -2.09482635 44.12665833 -2.09336853 43.37490845 C-2.08776531 41.04156415 -2.07521235 38.70831536 -2.0625 36.375 C-2.05748541 34.79427222 -2.05292243 33.21354293 -2.04882812 31.6328125 C-2.03779484 27.75517146 -2.02052811 23.87760193 -2 20 C-4.31 20 -6.62 20 -9 20 C-9 18.02 -9 16.04 -9 14 C-6.36 14 -3.72 14 -1 14 C-0.67 9.38 -0.34 4.76 0 0 Z " fill="#F9F9FA" transform="translate(1100,1202)"/>
<path d="M0 0 C3.81883489 1.77303048 5.49439614 3.29867851 7.9375 6.6875 C9.35064983 11.0932024 9.30955881 14.56337348 8 19 C5.82196624 22.81358327 3.05146108 25.31000506 -1 27 C-5.207917 27.89378688 -8.62772087 27.86112818 -12.328125 25.5390625 C-16.1252529 22.30194267 -18.52635291 20.09369492 -19.30859375 14.984375 C-19.57869328 10.30264985 -19.21806602 7.64244271 -16.125 4 C-11.41188824 -0.91802967 -6.56699518 -0.6585546 0 0 Z " fill="#D5B955" transform="translate(401,982)"/>
<path d="M0 0 C2.64 0 5.28 0 8 0 C8.01213028 1.06115776 8.01213028 1.06115776 8.02450562 2.14375305 C8.10243337 8.80938581 8.18971838 15.47482258 8.28752708 22.14019489 C8.33748172 25.56697348 8.38381157 28.99372136 8.421875 32.4206543 C8.46578887 36.36004083 8.52543728 40.29911308 8.5859375 44.23828125 C8.59748871 45.46960281 8.60903992 46.70092438 8.62094116 47.96955872 C8.64081085 49.11051498 8.66068054 50.25147125 8.68115234 51.42700195 C8.69447601 52.432939 8.70779968 53.43887604 8.7215271 54.47529602 C8.83105755 57.24506609 8.83105755 57.24506609 11 60 C13.56282742 60.72965366 13.56282742 60.72965366 16 61 C16 62.98 16 64.96 16 67 C7.01262916 67.78530425 7.01262916 67.78530425 2.9375 64.625 C0.11627399 60.80269379 -0.12338572 58.97837426 -0.11352539 54.26513672 C-0.11344986 53.06404266 -0.11337433 51.86294861 -0.11329651 50.62545776 C-0.10813522 49.32335358 -0.10297394 48.02124939 -0.09765625 46.6796875 C-0.09579138 45.33733167 -0.0943678 43.99497516 -0.09336853 42.65261841 C-0.08954878 39.11804325 -0.07972312 35.58350913 -0.06866455 32.0489502 C-0.05843878 28.44279536 -0.05386841 24.8366339 -0.04882812 21.23046875 C-0.03810038 14.15362904 -0.02103045 7.0768172 0 0 Z " fill="#FBFBFC" transform="translate(415,1196)"/>
<path d="M0 0 C0 2.64 0 5.28 0 8 C-0.81984375 8.08636719 -1.6396875 8.17273437 -2.484375 8.26171875 C-3.56203125 8.40222656 -4.6396875 8.54273438 -5.75 8.6875 C-6.81734375 8.81511719 -7.8846875 8.94273438 -8.984375 9.07421875 C-12.87311469 10.26804169 -13.83048856 11.58651315 -16 15 C-16.63865034 18.57000634 -16.63865034 18.57000634 -16.609375 22.48828125 C-16.62591125 23.19147995 -16.64244751 23.89467865 -16.65948486 24.6191864 C-16.7078094 26.85038112 -16.7292991 29.0808952 -16.75 31.3125 C-16.77817302 32.83141417 -16.80810232 34.35029684 -16.83984375 35.86914062 C-16.91356111 39.57927971 -16.96323205 43.2892898 -17 47 C-19.64 47 -22.28 47 -25 47 C-25 31.82 -25 16.64 -25 1 C-22.36 1 -19.72 1 -17 1 C-16.67 2.65 -16.34 4.3 -16 6 C-15.05125 5.195625 -14.1025 4.39125 -13.125 3.5625 C-8.61287946 -0.2629935 -5.83624335 -0.09413296 0 0 Z " fill="#F6F7F8" transform="translate(1006,1215)"/>
<path d="M0 0 C0 2.64 0 5.28 0 8 C-0.65226563 8.01417969 -1.30453125 8.02835938 -1.9765625 8.04296875 C-2.85054687 8.09066406 -3.72453125 8.13835937 -4.625 8.1875 C-5.48351562 8.22230469 -6.34203125 8.25710938 -7.2265625 8.29296875 C-10.959995 9.24473112 -13.57161514 11.05823061 -16 14 C-16.61150279 16.84563189 -16.84175773 18.86976308 -16.8046875 21.70703125 C-16.82524704 22.79512337 -16.82524704 22.79512337 -16.84622192 23.90519714 C-16.88343204 26.20826753 -16.87981414 28.50917245 -16.875 30.8125 C-16.8931335 32.37959086 -16.91393827 33.94665323 -16.9375 35.51367188 C-16.98926502 39.34280927 -17.00443702 43.17053198 -17 47 C-19.64 47 -22.28 47 -25 47 C-25 31.82 -25 16.64 -25 1 C-22.36 1 -19.72 1 -17 1 C-16.67 2.65 -16.34 4.3 -16 6 C-15.05125 5.195625 -14.1025 4.39125 -13.125 3.5625 C-8.61287946 -0.2629935 -5.83624335 -0.09413296 0 0 Z " fill="#FAFAFB" transform="translate(680,1215)"/>
<path d="M0 0 C0 2.64 0 5.28 0 8 C-0.59167969 8.03738281 -1.18335938 8.07476563 -1.79296875 8.11328125 C-6.56797099 8.51054897 -10.1045504 8.95668 -14 12 C-15.49983085 14.9996617 -15.23902055 18.11946961 -15.31640625 21.4140625 C-15.33718735 22.14370209 -15.35796844 22.87334167 -15.37937927 23.62509155 C-15.44481917 25.95829763 -15.50373368 28.29161721 -15.5625 30.625 C-15.60569053 32.20574095 -15.64930499 33.78647039 -15.69335938 35.3671875 C-15.80049481 39.24467504 -15.90177782 43.12227685 -16 47 C-18.64 47 -21.28 47 -24 47 C-24 31.82 -24 16.64 -24 1 C-21.69 1 -19.38 1 -17 1 C-16.67 3.31 -16.34 5.62 -16 8 C-15.59007812 7.50628906 -15.18015625 7.01257812 -14.7578125 6.50390625 C-14.21898437 5.86324219 -13.68015625 5.22257812 -13.125 4.5625 C-12.59132813 3.92441406 -12.05765625 3.28632812 -11.5078125 2.62890625 C-8.19008942 -0.95526609 -4.5936525 -0.07409117 0 0 Z " fill="#FAFBFB" transform="translate(372,1215)"/>
<path d="M0 0 C2.64 0 5.28 0 8 0 C8 15.18 8 30.36 8 46 C5.36 46 2.72 46 0 46 C0 30.82 0 15.64 0 0 Z " fill="#F9FAFB" transform="translate(1128,1216)"/>
<path d="M0 0 C0.79857422 -0.01160156 1.59714844 -0.02320313 2.41992188 -0.03515625 C7.55848954 -0.00961242 11.25532751 0.56782751 15.0625 4.375 C15.52761628 9.72383721 15.52761628 9.72383721 13.8125 12.125 C7.9434704 16.317164 2.08428294 15.95942169 -4.9375 15.375 C-8.49858467 14.04713792 -10.29263566 13.01986434 -12.9375 10.375 C-13.3125 6.9375 -13.3125 6.9375 -12.9375 3.375 C-9.45745532 -0.66185183 -4.91997609 -0.07113218 0 0 Z " fill="#092650" transform="translate(1218.9375,1255.625)"/>
<path d="M0 0 C2.93423195 1.79646854 4.47205355 2.9441071 6 6 C6.03949715 10.16299982 6.04253184 13.88796604 3.125 17 C-1.08909257 18.98310239 -4.36018306 19.39320483 -9 19 C-12.375 17.5625 -12.375 17.5625 -15 15 C-16.07438448 11.93686126 -16.36210914 9.22449571 -16 6 C-12.00068103 -0.61956243 -7.24978863 -0.8549279 0 0 Z " fill="#092651" transform="translate(1225,1219)"/>
<path d="M0 0 C1.27230469 0.00902344 2.54460937 0.01804687 3.85546875 0.02734375 C5.31919922 0.04474609 5.31919922 0.04474609 6.8125 0.0625 C7.67260847 9.73394186 7.67260847 9.73394186 4.625 13.5625 C0.7664372 16.9923336 -1.58924777 17.89125869 -6.6875 18.4375 C-10.1875 18.0625 -10.1875 18.0625 -13.125 16.625 C-15.74639083 13.36812048 -15.90604858 11.28606179 -15.68359375 7.1875 C-15.1875 5.0625 -15.1875 5.0625 -12.875 2.5625 C-8.39459256 0.06180748 -5.07303624 -0.04654162 0 0 Z " fill="#05224E" transform="translate(1035.1875,1238.9375)"/>
<path d="M0 0 C2.75 1.3125 2.75 1.3125 5 3 C5.5775 3.391875 6.155 3.78375 6.75 4.1875 C8 6 8 6 9 14 C1.08 14 -6.84 14 -15 14 C-15 7.23444976 -15 7.23444976 -12.125 4.1875 C-11.59132813 3.60355469 -11.05765625 3.01960938 -10.5078125 2.41796875 C-7.26642197 -0.63028193 -4.30723468 -0.29201591 0 0 Z " fill="#06234E" transform="translate(461,1221)"/>
<path d="M0 0 C2.64 0 5.28 0 8 0 C8 2.64 8 5.28 8 8 C5.36 8 2.72 8 0 8 C0 5.36 0 2.72 0 0 Z " fill="#FFFFFF" transform="translate(1128,1198)"/>
</svg>
