<?xml version="1.0" encoding="utf-8" ?>
<svg xmlns="http://www.w3.org/2000/svg" xmlns:xlink="http://www.w3.org/1999/xlink" width="1024" height="1024">
	<path fill="#2D4085" transform="scale(2 2)" d="M256.528 436.814L155.028 436.82C148.114 436.824 140.916 437.18 134.131 435.671C110.218 430.354 91.8491 408.033 91.6761 383.442L91.6718 146.872C91.6695 137.979 90.9642 125.694 92.4046 117.274C95.8811 96.9516 112.595 80.8819 132.486 76.4777C139.56 74.9115 146.921 75.2385 154.122 75.2421L256.528 75.2492C256.217 93.273 256.532 111.351 256.53 129.383L256.521 152.361C256.512 156.627 256.342 160.951 256.528 165.21C256.275 165.674 256.041 166.161 255.741 166.596C250.95 171.245 228.521 192.714 226.15 197.627C223.427 203.841 225.896 211.002 232.228 213.831C236.732 215.843 250.821 214.806 256.528 214.875L256.528 214.875C255.928 242.441 255.945 272.202 256.528 299.771L256.528 324.587L256.528 324.587L256.528 436.814Z"/>
	<path fill="#4050BC" transform="scale(2 2)" d="M256.528 299.771L256.528 324.587C240.137 325.05 235.361 301.714 256.528 299.771Z"/>
	<path fill="#FB963C" transform="scale(2 2)" d="M140.621 292.714C154.686 292.408 168.823 292.722 182.896 292.73L197.001 292.699C202.076 292.675 207.462 292.027 211.896 295.033C221.106 301.277 216.436 314.212 206.47 315.975C202.146 316.204 197.712 315.984 193.375 315.981L150.593 315.977C145.639 315.99 140.059 316.814 135.626 314.074C126.348 308.34 129.122 294.938 140.621 292.714Z"/>
	<path fill="#FED81D" transform="scale(2 2)" d="M142.889 245.285L185.173 245.279C195.677 245.281 215.737 241.494 217.215 256.392C217.906 263.363 212.283 268.967 205.548 269.499L161.342 269.501C155.555 269.5 145.305 270.026 139.969 269.228C126.223 267.171 125.782 246.644 142.889 245.285Z"/>
	<path fill="#FEED77" transform="scale(2 2)" d="M142.889 338.572L186.101 338.562C191.787 338.561 201.981 337.993 207.218 338.954C220.359 341.364 220.582 362.077 204.062 363.147L162.3 363.161C156.201 363.16 146.482 363.728 140.702 362.787C126.696 360.506 126.149 339.786 142.889 338.572Z"/>
	<path fill="#192351" transform="scale(2 2)" d="M256.528 75.2492L360.172 75.2393C366.636 75.2357 373.262 74.8653 379.613 76.2724C408.742 82.7257 420.745 105.578 420.719 132.97L420.707 363.88C420.717 372.781 421.469 384.335 419.916 392.932C416.122 413.948 399.192 431.038 378.434 435.605C371.436 437.144 364.154 436.83 357.032 436.828L256.528 436.814L256.528 324.587L256.528 324.587L256.528 299.771C255.945 272.202 255.928 242.441 256.528 214.875L256.528 214.875C250.821 214.806 236.732 215.843 232.228 213.831C225.896 211.002 223.427 203.841 226.15 197.627C228.521 192.714 250.95 171.245 255.741 166.596C256.041 166.161 256.275 165.674 256.528 165.21C256.342 160.951 256.512 156.627 256.521 152.361L256.53 129.383C256.532 111.351 256.217 93.273 256.528 75.2492Z"/>
	<path fill="#2D4085" transform="scale(2 2)" d="M307.76 346.997C321.082 346.71 334.467 347.002 347.796 347.01L361.513 346.992C366.106 346.965 371.79 346.207 375.878 348.78C385.975 355.135 382.308 369.885 371.063 371.783L315.768 371.805C307.511 371.805 297.67 372.047 296.29 360.851C295.433 353.893 301.019 347.763 307.76 346.997Z"/>
	<path fill="#2D4085" transform="scale(2 2)" d="M256.528 299.771L359.208 299.76C363.188 299.756 367.531 299.42 371.47 299.958C385.76 301.913 385.461 322.587 371.211 324.432C367.071 324.968 362.592 324.611 358.416 324.595L256.528 324.587L256.528 324.587L256.528 299.771Z"/>
	<path fill="#FED81D" transform="scale(2 2)" d="M256.528 165.21C273.591 151.14 271.654 139.794 295.946 139.773L325.93 139.765C335.024 139.766 347.127 140.569 345.695 153.935C344.377 166.233 316.204 176.41 339.629 176.236L351.692 176.166C356.941 176.158 362.122 176.115 365.834 180.505C373.991 190.152 363.509 198.484 357.408 204.551L339.562 222.242C328.46 233.371 317.346 244.413 306.049 255.342C300.36 260.845 293.243 270.688 284.938 271.839C278.869 271.698 272.051 267.584 272.219 260.811C272.408 253.167 279.476 222.832 281.862 214.875L256.528 214.875L256.528 214.875C250.821 214.806 236.732 215.843 232.228 213.831C225.896 211.002 223.427 203.841 226.15 197.627C228.521 192.714 250.95 171.245 255.741 166.596C256.041 166.161 256.275 165.674 256.528 165.21Z"/>
	<path fill="#FEED77" transform="scale(2 2)" d="M226.15 197.627C228.521 192.714 250.95 171.245 255.741 166.596C257.062 168.219 257.21 193.577 256.528 197.627C246.78 197.763 235.84 198.137 226.15 197.627Z"/>
	<path fill="#FEC104" transform="scale(2 2)" d="M256.528 197.627L295.474 197.523C297.135 197.502 298.973 197.275 300.61 197.477C301.39 201.739 296.205 219.038 295.105 223.753C293.741 229.598 284.454 267.309 284.938 271.839C278.869 271.698 272.051 267.584 272.219 260.811C272.408 253.167 279.476 222.832 281.862 214.875L256.528 214.875L256.528 214.875C256.593 209.237 256.985 203.243 256.528 197.627Z"/>
</svg>
