<?xml version="1.0" encoding="utf-8" ?>
<svg xmlns="http://www.w3.org/2000/svg" xmlns:xlink="http://www.w3.org/1999/xlink" width="1024" height="1024">
	<path fill="#233860" transform="scale(2 2)" d="M171.547 72.6379L372.504 72.5631C403.873 72.4856 432.09 95.337 438.403 126.028C440.52 136.322 439.738 147.34 439.735 157.818L439.745 359.784C439.751 365.713 440.013 371.786 439.525 377.695C436.987 408.478 414.843 432.119 384.943 438.329C376.975 439.984 368.55 439.387 360.453 439.381L213.625 439.373L165.533 439.372C152.875 439.374 136.372 440.424 124.364 437.436C97.0346 430.635 75.4403 406.322 72.4529 378.201C71.8312 372.349 72.0932 366.322 72.0923 360.439L72.1025 335.619L113.756 335.622C119.19 335.623 128.778 336.173 133.753 335.313C146.379 333.131 146.859 314.273 134.176 311.937C129.431 311.063 119.253 311.613 114.036 311.614L72.1025 311.623L72.1025 263.259L102.981 263.277C107.826 263.279 114.249 263.83 118.879 262.926C130.833 260.593 131.708 243.197 119.79 240.19C115.196 239.032 107.447 239.642 102.468 239.641L72.1025 239.649L72.0922 148.267C72.0909 140.426 71.7742 132.52 73.5374 124.824C79.5719 98.4846 101.87 77.5805 128.658 73.4478C135.244 72.4317 141.966 72.6295 148.607 72.6279L171.547 72.6379ZM131.098 135.97C119.791 137.413 114.632 150.604 124.711 157.82C129.808 161.471 141.202 160.014 147.215 160.015L346.33 160.018C349.592 160.018 353.04 160.277 356.277 160.013C367.322 158.648 372.886 145.669 362.949 138.486C357.841 134.793 350.124 135.967 344.192 135.979L145.539 135.965C140.741 135.965 135.892 135.82 131.098 135.97ZM131.098 351.98C115.164 353.829 116.285 375.202 130.377 376.307C135.501 376.709 140.837 376.41 145.99 376.406L200.564 376.407C204.233 376.413 208.182 376.749 211.814 376.392C218.553 375.466 224.117 369.863 223.077 362.743C221.22 350.023 207.279 351.947 197.934 351.971L144.476 351.983C140.105 351.982 135.442 351.62 131.098 351.98ZM234.495 223.738L162.99 223.727C160.041 223.727 156.891 223.519 153.974 223.938C140.345 225.897 141.374 248.015 158.49 247.072L228.821 247.083C234.784 247.083 240.621 247.966 245.168 243.338C253.122 235.243 246.319 222.88 234.495 223.738ZM177.509 311.623C172.58 311.84 167.606 314.412 167.986 320.054C168.665 330.144 178.573 328.617 185.859 328.62L254.84 328.613C268.279 327.961 266.646 313.109 256.89 311.912C252.774 311.407 248.493 311.618 244.347 311.618L193.422 311.616C188.136 311.616 182.787 311.434 177.509 311.623ZM206.026 183.904C201.958 183.91 192.51 183.385 189.101 184.242C181.907 186.051 181.921 199.012 189.407 200.071C191.887 200.423 194.575 200.238 197.085 200.237L257.625 200.217C261.929 200.238 269.776 200.799 273.637 199.996C279.797 198.714 282.035 190.653 277.561 186.175C274.473 183.084 267.878 183.897 263.913 183.895L206.026 183.904ZM193.434 263.914C183.556 265.392 179.882 278.667 188.295 284.7C192.774 287.912 199.521 287.01 204.695 287.011L222.744 286.996C233.933 283.107 235.534 269.752 225.697 265.095C221.418 263.07 199.752 263.908 193.434 263.914Z"/>
	<path fill="#FEC61C" transform="scale(2 2)" d="M348.079 185.569C357.432 184.679 367.413 191.562 366.716 201.76C366.36 206.977 363.861 212.998 362.484 218.097L355.421 244.503C353.644 250.975 351.694 257.404 350.061 263.914C361.997 264.286 390.981 258.295 391.275 276.869C391.394 284.419 385.795 288.651 380.812 293.452C370.96 302.943 361.405 312.779 351.741 322.463L312.728 361.83C308.905 365.733 304.918 369.469 301.168 373.445C299.816 374.941 298.461 376.371 296.963 377.721L313.28 295.687C303.565 295.322 286.464 296.954 277.743 295.299C264.212 292.732 256.792 275.83 264.805 264.414C268.899 258.581 275.543 253.214 280.625 248.16L330.556 198.06C335.928 192.574 340.01 186.921 348.079 185.569Z"/>
</svg>
